G04 #@! TF.FileFunction,Legend,Top*
%FSLAX45Y45*%
G04 Gerber Fmt 4.5, Leading zero omitted, Abs format (unit mm)*
G04 Created by KiCad (PCBNEW 4.0.1-stable) date 12-Feb-16 11:08:01 AM*
%MOMM*%
G01*
G04 APERTURE LIST*
%ADD10C,0.100000*%
%ADD11C,0.125000*%
%ADD12C,0.150000*%
%ADD13C,0.090000*%
G04 APERTURE END LIST*
D10*
D11*
X2450000Y-822619D02*
X2450000Y-772619D01*
X2461905Y-772619D01*
X2469048Y-775000D01*
X2473810Y-779762D01*
X2476191Y-784524D01*
X2478572Y-794048D01*
X2478572Y-801190D01*
X2476191Y-810714D01*
X2473810Y-815476D01*
X2469048Y-820238D01*
X2461905Y-822619D01*
X2450000Y-822619D01*
X2500000Y-822619D02*
X2500000Y-772619D01*
X2552381Y-822619D02*
X2535714Y-798809D01*
X2523810Y-822619D02*
X2523810Y-772619D01*
X2542857Y-772619D01*
X2547619Y-775000D01*
X2550000Y-777381D01*
X2552381Y-782143D01*
X2552381Y-789286D01*
X2550000Y-794048D01*
X2547619Y-796429D01*
X2542857Y-798809D01*
X2523810Y-798809D01*
X2424048Y-690238D02*
X2431191Y-692619D01*
X2443095Y-692619D01*
X2447857Y-690238D01*
X2450238Y-687857D01*
X2452619Y-683095D01*
X2452619Y-678333D01*
X2450238Y-673571D01*
X2447857Y-671191D01*
X2443095Y-668810D01*
X2433572Y-666429D01*
X2428810Y-664048D01*
X2426429Y-661667D01*
X2424048Y-656905D01*
X2424048Y-652143D01*
X2426429Y-647381D01*
X2428810Y-645000D01*
X2433572Y-642619D01*
X2445476Y-642619D01*
X2452619Y-645000D01*
X2466905Y-642619D02*
X2495476Y-642619D01*
X2481191Y-692619D02*
X2481191Y-642619D01*
X2512143Y-666429D02*
X2528810Y-666429D01*
X2535952Y-692619D02*
X2512143Y-692619D01*
X2512143Y-642619D01*
X2535952Y-642619D01*
X2557381Y-692619D02*
X2557381Y-642619D01*
X2576429Y-642619D01*
X2581191Y-645000D01*
X2583571Y-647381D01*
X2585952Y-652143D01*
X2585952Y-659286D01*
X2583571Y-664048D01*
X2581191Y-666429D01*
X2576429Y-668810D01*
X2557381Y-668810D01*
X96429Y-1130238D02*
X98809Y-1123095D01*
X101190Y-1120714D01*
X105952Y-1118333D01*
X113095Y-1118333D01*
X117857Y-1120714D01*
X120238Y-1123095D01*
X122619Y-1127857D01*
X122619Y-1146905D01*
X72619Y-1146905D01*
X72619Y-1130238D01*
X75000Y-1125476D01*
X77381Y-1123095D01*
X82143Y-1120714D01*
X86905Y-1120714D01*
X91667Y-1123095D01*
X94048Y-1125476D01*
X96429Y-1130238D01*
X96429Y-1146905D01*
X122619Y-1070714D02*
X122619Y-1099286D01*
X122619Y-1085000D02*
X72619Y-1085000D01*
X79762Y-1089762D01*
X84524Y-1094524D01*
X86905Y-1099286D01*
X96429Y-880238D02*
X98809Y-873095D01*
X101190Y-870714D01*
X105952Y-868333D01*
X113095Y-868333D01*
X117857Y-870714D01*
X120238Y-873095D01*
X122619Y-877857D01*
X122619Y-896905D01*
X72619Y-896905D01*
X72619Y-880238D01*
X75000Y-875476D01*
X77381Y-873095D01*
X82143Y-870714D01*
X86905Y-870714D01*
X91667Y-873095D01*
X94048Y-875476D01*
X96429Y-880238D01*
X96429Y-896905D01*
X77381Y-849286D02*
X75000Y-846905D01*
X72619Y-842143D01*
X72619Y-830238D01*
X75000Y-825476D01*
X77381Y-823095D01*
X82143Y-820714D01*
X86905Y-820714D01*
X94048Y-823095D01*
X122619Y-851667D01*
X122619Y-820714D01*
X108353Y-638714D02*
X108353Y-614905D01*
X122639Y-643476D02*
X72639Y-626809D01*
X122639Y-610143D01*
X77401Y-595857D02*
X75020Y-593476D01*
X72639Y-588714D01*
X72639Y-576810D01*
X75020Y-572048D01*
X77401Y-569667D01*
X82163Y-567286D01*
X86925Y-567286D01*
X94068Y-569667D01*
X122639Y-598238D01*
X122639Y-567286D01*
X108353Y-378714D02*
X108353Y-354905D01*
X122639Y-383476D02*
X72639Y-366809D01*
X122639Y-350143D01*
X122639Y-307286D02*
X122639Y-335857D01*
X122639Y-321571D02*
X72639Y-321571D01*
X79782Y-326333D01*
X84544Y-331095D01*
X86925Y-335857D01*
D10*
X2432222Y-85619D02*
X2438472Y-35619D01*
X2450377Y-35619D01*
X2457222Y-38000D01*
X2461389Y-42762D01*
X2463175Y-47524D01*
X2464365Y-57048D01*
X2463472Y-64190D01*
X2459901Y-73714D01*
X2456925Y-78476D01*
X2451568Y-83238D01*
X2444127Y-85619D01*
X2432222Y-85619D01*
X2501568Y-83238D02*
X2496508Y-85619D01*
X2486984Y-85619D01*
X2482520Y-83238D01*
X2480734Y-78476D01*
X2483115Y-59429D01*
X2486092Y-54667D01*
X2491151Y-52286D01*
X2500675Y-52286D01*
X2505139Y-54667D01*
X2506925Y-59429D01*
X2506330Y-64190D01*
X2481925Y-68952D01*
X2522996Y-83238D02*
X2527460Y-85619D01*
X2536984Y-85619D01*
X2542044Y-83238D01*
X2545020Y-78476D01*
X2545318Y-76095D01*
X2543532Y-71333D01*
X2539068Y-68952D01*
X2531925Y-68952D01*
X2527461Y-66571D01*
X2525675Y-61809D01*
X2525972Y-59429D01*
X2528949Y-54667D01*
X2534008Y-52286D01*
X2541151Y-52286D01*
X2545615Y-54667D01*
X2565556Y-85619D02*
X2569722Y-52286D01*
X2571806Y-35619D02*
X2569127Y-38000D01*
X2571211Y-40381D01*
X2573889Y-38000D01*
X2571806Y-35619D01*
X2571211Y-40381D01*
X2614960Y-52286D02*
X2609901Y-92762D01*
X2606925Y-97524D01*
X2604246Y-99905D01*
X2599187Y-102286D01*
X2592044Y-102286D01*
X2587580Y-99905D01*
X2611091Y-83238D02*
X2606032Y-85619D01*
X2596508Y-85619D01*
X2592044Y-83238D01*
X2589961Y-80857D01*
X2588175Y-76095D01*
X2589960Y-61809D01*
X2592937Y-57048D01*
X2595615Y-54667D01*
X2600675Y-52286D01*
X2610199Y-52286D01*
X2614663Y-54667D01*
X2638770Y-52286D02*
X2634603Y-85619D01*
X2638175Y-57048D02*
X2640853Y-54667D01*
X2645913Y-52286D01*
X2653056Y-52286D01*
X2657520Y-54667D01*
X2659306Y-59429D01*
X2656032Y-85619D01*
X2699187Y-83238D02*
X2694127Y-85619D01*
X2684603Y-85619D01*
X2680139Y-83238D01*
X2678353Y-78476D01*
X2680734Y-59429D01*
X2683711Y-54667D01*
X2688770Y-52286D01*
X2698294Y-52286D01*
X2702758Y-54667D01*
X2704544Y-59429D01*
X2703949Y-64190D01*
X2679544Y-68952D01*
X2744127Y-85619D02*
X2750377Y-35619D01*
X2744425Y-83238D02*
X2739365Y-85619D01*
X2729841Y-85619D01*
X2725377Y-83238D01*
X2723294Y-80857D01*
X2721508Y-76095D01*
X2723294Y-61809D01*
X2726270Y-57048D01*
X2728949Y-54667D01*
X2734008Y-52286D01*
X2743532Y-52286D01*
X2747996Y-54667D01*
X2806032Y-85619D02*
X2812282Y-35619D01*
X2809901Y-54667D02*
X2814960Y-52286D01*
X2824484Y-52286D01*
X2828948Y-54667D01*
X2831032Y-57048D01*
X2832817Y-61809D01*
X2831032Y-76095D01*
X2828056Y-80857D01*
X2825377Y-83238D01*
X2820317Y-85619D01*
X2810794Y-85619D01*
X2806329Y-83238D01*
X2850675Y-52286D02*
X2858413Y-85619D01*
X2874484Y-52286D02*
X2858413Y-85619D01*
X2852163Y-97524D01*
X2849484Y-99905D01*
X2844425Y-102286D01*
X2889960Y-80857D02*
X2892044Y-83238D01*
X2889365Y-85619D01*
X2887282Y-83238D01*
X2889960Y-80857D01*
X2889365Y-85619D01*
X2893234Y-54667D02*
X2895317Y-57048D01*
X2892639Y-59429D01*
X2890556Y-57048D01*
X2893234Y-54667D01*
X2892639Y-59429D01*
X2950377Y-35619D02*
X2978948Y-35619D01*
X2958413Y-85619D02*
X2964663Y-35619D01*
X2989365Y-85619D02*
X2995615Y-35619D01*
X3017936Y-85619D02*
X3000079Y-57048D01*
X3024186Y-35619D02*
X2992044Y-64190D01*
X3026865Y-90381D02*
X3064960Y-90381D01*
X3077460Y-85619D02*
X3083710Y-35619D01*
X3095615Y-35619D01*
X3102460Y-38000D01*
X3106627Y-42762D01*
X3108412Y-47524D01*
X3109603Y-57048D01*
X3108710Y-64190D01*
X3105139Y-73714D01*
X3102163Y-78476D01*
X3096805Y-83238D01*
X3089365Y-85619D01*
X3077460Y-85619D01*
X3148889Y-85619D02*
X3152162Y-59429D01*
X3150377Y-54667D01*
X3145913Y-52286D01*
X3136389Y-52286D01*
X3131329Y-54667D01*
X3149186Y-83238D02*
X3144127Y-85619D01*
X3132222Y-85619D01*
X3127758Y-83238D01*
X3125972Y-78476D01*
X3126567Y-73714D01*
X3129544Y-68952D01*
X3134603Y-66571D01*
X3146508Y-66571D01*
X3151567Y-64190D01*
X3172698Y-85619D02*
X3176865Y-52286D01*
X3178948Y-35619D02*
X3176270Y-38000D01*
X3178353Y-40381D01*
X3181032Y-38000D01*
X3178948Y-35619D01*
X3178353Y-40381D01*
X3218234Y-83238D02*
X3213174Y-85619D01*
X3203651Y-85619D01*
X3199186Y-83238D01*
X3197103Y-80857D01*
X3195317Y-76095D01*
X3197103Y-61809D01*
X3200079Y-57048D01*
X3202758Y-54667D01*
X3207817Y-52286D01*
X3217341Y-52286D01*
X3221805Y-54667D01*
X3239365Y-85619D02*
X3245615Y-35619D01*
X3260793Y-85619D02*
X3264067Y-59429D01*
X3262282Y-54667D01*
X3257817Y-52286D01*
X3250674Y-52286D01*
X3245615Y-54667D01*
X3242936Y-57048D01*
X3284603Y-85619D02*
X3288770Y-52286D01*
X3290853Y-35619D02*
X3288174Y-38000D01*
X3290258Y-40381D01*
X3292936Y-38000D01*
X3290853Y-35619D01*
X3290258Y-40381D01*
X3035258Y-455143D02*
X3037639Y-448000D01*
X3037639Y-436095D01*
X3035258Y-431333D01*
X3032877Y-428952D01*
X3028115Y-426571D01*
X3023353Y-426571D01*
X3018591Y-428952D01*
X3016210Y-431333D01*
X3013829Y-436095D01*
X3011449Y-445619D01*
X3009068Y-450381D01*
X3006687Y-452762D01*
X3001925Y-455143D01*
X2997163Y-455143D01*
X2992401Y-452762D01*
X2990020Y-450381D01*
X2987639Y-445619D01*
X2987639Y-433714D01*
X2990020Y-426571D01*
X3004306Y-412286D02*
X3004306Y-393238D01*
X2987639Y-405143D02*
X3030496Y-405143D01*
X3035258Y-402762D01*
X3037639Y-398000D01*
X3037639Y-393238D01*
X3035258Y-357524D02*
X3037639Y-362286D01*
X3037639Y-371809D01*
X3035258Y-376571D01*
X3030496Y-378952D01*
X3011449Y-378952D01*
X3006687Y-376571D01*
X3004306Y-371809D01*
X3004306Y-362286D01*
X3006687Y-357524D01*
X3011449Y-355143D01*
X3016210Y-355143D01*
X3020972Y-378952D01*
X3004306Y-333714D02*
X3054306Y-333714D01*
X3006687Y-333714D02*
X3004306Y-328952D01*
X3004306Y-319429D01*
X3006687Y-314667D01*
X3009068Y-312286D01*
X3013829Y-309905D01*
X3028115Y-309905D01*
X3032877Y-312286D01*
X3035258Y-314667D01*
X3037639Y-319429D01*
X3037639Y-328952D01*
X3035258Y-333714D01*
X3004306Y-288476D02*
X3054306Y-288476D01*
X3006687Y-288476D02*
X3004306Y-283714D01*
X3004306Y-274191D01*
X3006687Y-269429D01*
X3009068Y-267048D01*
X3013829Y-264667D01*
X3028115Y-264667D01*
X3032877Y-267048D01*
X3035258Y-269429D01*
X3037639Y-274191D01*
X3037639Y-283714D01*
X3035258Y-288476D01*
X3035258Y-224190D02*
X3037639Y-228952D01*
X3037639Y-238476D01*
X3035258Y-243238D01*
X3030496Y-245619D01*
X3011449Y-245619D01*
X3006687Y-243238D01*
X3004306Y-238476D01*
X3004306Y-228952D01*
X3006687Y-224190D01*
X3011449Y-221810D01*
X3016210Y-221810D01*
X3020972Y-245619D01*
X3037639Y-200381D02*
X3004306Y-200381D01*
X3013829Y-200381D02*
X3009068Y-198000D01*
X3006687Y-195619D01*
X3004306Y-190857D01*
X3004306Y-186095D01*
X3117639Y-414667D02*
X3067639Y-414667D01*
X3103353Y-398000D01*
X3067639Y-381333D01*
X3117639Y-381333D01*
X3117639Y-350381D02*
X3115258Y-355143D01*
X3112877Y-357524D01*
X3108115Y-359905D01*
X3093829Y-359905D01*
X3089068Y-357524D01*
X3086687Y-355143D01*
X3084306Y-350381D01*
X3084306Y-343238D01*
X3086687Y-338476D01*
X3089068Y-336095D01*
X3093829Y-333714D01*
X3108115Y-333714D01*
X3112877Y-336095D01*
X3115258Y-338476D01*
X3117639Y-343238D01*
X3117639Y-350381D01*
X3084306Y-319429D02*
X3084306Y-300381D01*
X3067639Y-312286D02*
X3110496Y-312286D01*
X3115258Y-309905D01*
X3117639Y-305143D01*
X3117639Y-300381D01*
X3117639Y-276571D02*
X3115258Y-281333D01*
X3112877Y-283714D01*
X3108115Y-286095D01*
X3093829Y-286095D01*
X3089068Y-283714D01*
X3086687Y-281333D01*
X3084306Y-276571D01*
X3084306Y-269429D01*
X3086687Y-264667D01*
X3089068Y-262286D01*
X3093829Y-259905D01*
X3108115Y-259905D01*
X3112877Y-262286D01*
X3115258Y-264667D01*
X3117639Y-269429D01*
X3117639Y-276571D01*
X3117639Y-238476D02*
X3084306Y-238476D01*
X3093829Y-238476D02*
X3089068Y-236095D01*
X3086687Y-233714D01*
X3084306Y-228952D01*
X3084306Y-224190D01*
X3192877Y-487286D02*
X3195258Y-489667D01*
X3197639Y-496809D01*
X3197639Y-501571D01*
X3195258Y-508714D01*
X3190496Y-513476D01*
X3185734Y-515857D01*
X3176210Y-518238D01*
X3169068Y-518238D01*
X3159544Y-515857D01*
X3154782Y-513476D01*
X3150020Y-508714D01*
X3147639Y-501571D01*
X3147639Y-496809D01*
X3150020Y-489667D01*
X3152401Y-487286D01*
X3197639Y-458714D02*
X3195258Y-463476D01*
X3192877Y-465857D01*
X3188115Y-468238D01*
X3173829Y-468238D01*
X3169068Y-465857D01*
X3166687Y-463476D01*
X3164306Y-458714D01*
X3164306Y-451571D01*
X3166687Y-446809D01*
X3169068Y-444429D01*
X3173829Y-442048D01*
X3188115Y-442048D01*
X3192877Y-444429D01*
X3195258Y-446809D01*
X3197639Y-451571D01*
X3197639Y-458714D01*
X3164306Y-420619D02*
X3197639Y-420619D01*
X3169068Y-420619D02*
X3166687Y-418238D01*
X3164306Y-413476D01*
X3164306Y-406333D01*
X3166687Y-401571D01*
X3171449Y-399190D01*
X3197639Y-399190D01*
X3164306Y-382524D02*
X3164306Y-363476D01*
X3147639Y-375381D02*
X3190496Y-375381D01*
X3195258Y-373000D01*
X3197639Y-368238D01*
X3197639Y-363476D01*
X3197639Y-346810D02*
X3164306Y-346810D01*
X3173829Y-346810D02*
X3169068Y-344429D01*
X3166687Y-342048D01*
X3164306Y-337286D01*
X3164306Y-332524D01*
X3197639Y-308714D02*
X3195258Y-313476D01*
X3192877Y-315857D01*
X3188115Y-318238D01*
X3173829Y-318238D01*
X3169068Y-315857D01*
X3166687Y-313476D01*
X3164306Y-308714D01*
X3164306Y-301571D01*
X3166687Y-296810D01*
X3169068Y-294429D01*
X3173829Y-292048D01*
X3188115Y-292048D01*
X3192877Y-294429D01*
X3195258Y-296810D01*
X3197639Y-301571D01*
X3197639Y-308714D01*
X3197639Y-263476D02*
X3195258Y-268238D01*
X3190496Y-270619D01*
X3147639Y-270619D01*
X3197639Y-237286D02*
X3195258Y-242048D01*
X3190496Y-244428D01*
X3147639Y-244428D01*
X3195258Y-199190D02*
X3197639Y-203952D01*
X3197639Y-213476D01*
X3195258Y-218238D01*
X3190496Y-220619D01*
X3171449Y-220619D01*
X3166687Y-218238D01*
X3164306Y-213476D01*
X3164306Y-203952D01*
X3166687Y-199190D01*
X3171449Y-196809D01*
X3176210Y-196809D01*
X3180972Y-220619D01*
X3197639Y-175381D02*
X3164306Y-175381D01*
X3173829Y-175381D02*
X3169068Y-173000D01*
X3166687Y-170619D01*
X3164306Y-165857D01*
X3164306Y-161095D01*
X3294306Y-446809D02*
X3222877Y-446809D01*
X3227639Y-380143D02*
X3277639Y-363476D01*
X3227639Y-346810D01*
X3232401Y-332524D02*
X3230020Y-330143D01*
X3227639Y-325381D01*
X3227639Y-313476D01*
X3230020Y-308714D01*
X3232401Y-306333D01*
X3237163Y-303952D01*
X3241925Y-303952D01*
X3249068Y-306333D01*
X3277639Y-334905D01*
X3277639Y-303952D01*
X3272877Y-282524D02*
X3275258Y-280143D01*
X3277639Y-282524D01*
X3275258Y-284905D01*
X3272877Y-282524D01*
X3277639Y-282524D01*
X3232401Y-261095D02*
X3230020Y-258714D01*
X3227639Y-253952D01*
X3227639Y-242048D01*
X3230020Y-237286D01*
X3232401Y-234905D01*
X3237163Y-232524D01*
X3241925Y-232524D01*
X3249068Y-234905D01*
X3277639Y-263476D01*
X3277639Y-232524D01*
X3294306Y-161095D02*
X3222877Y-161095D01*
D12*
X1811441Y-275000D02*
G75*
G03X1811441Y-275000I-33941J0D01*
G01*
X2135500Y-209000D02*
X1685500Y-209000D01*
X1685500Y-209000D02*
X1685500Y-1189000D01*
X1685500Y-1189000D02*
X2135500Y-1189000D01*
X2135500Y-1189000D02*
X2135500Y-209000D01*
X2493670Y-141350D02*
X2563670Y-141350D01*
X2563670Y-261350D02*
X2493670Y-261350D01*
X2582520Y-973000D02*
X2582520Y-1093000D01*
X2407520Y-1093000D02*
X2407520Y-973000D01*
X2493670Y-477900D02*
X2563670Y-477900D01*
X2563670Y-597900D02*
X2493670Y-597900D01*
X2493670Y-309625D02*
X2563670Y-309625D01*
X2563670Y-429625D02*
X2493670Y-429625D01*
X1470120Y-81660D02*
X1540120Y-81660D01*
X1540120Y-201660D02*
X1470120Y-201660D01*
X701520Y-175240D02*
X701520Y-245240D01*
X581520Y-245240D02*
X581520Y-175240D01*
X881860Y-175240D02*
X881860Y-245240D01*
X761860Y-245240D02*
X761860Y-175240D01*
X1315760Y-168020D02*
X1315760Y-288020D01*
X1140760Y-288020D02*
X1140760Y-168020D01*
X939660Y-245240D02*
X939660Y-175240D01*
X1059660Y-175240D02*
X1059660Y-245240D01*
X445940Y-977320D02*
X445940Y-215320D01*
X191940Y-977320D02*
X191940Y-215320D01*
X163940Y-1259320D02*
X163940Y-1104320D01*
X445940Y-215320D02*
X191940Y-215320D01*
X191940Y-977320D02*
X445940Y-977320D01*
X473940Y-1104320D02*
X473940Y-1259320D01*
X473940Y-1259320D02*
X163940Y-1259320D01*
X920158Y-1736780D02*
X920158Y-1584380D01*
X907458Y-1546280D02*
X907458Y-1774880D01*
X894758Y-1800280D02*
X894758Y-1520880D01*
X882058Y-1495480D02*
X882058Y-1825680D01*
X869358Y-1838380D02*
X869358Y-1482780D01*
X958258Y-1990780D02*
X958258Y-1330380D01*
X958258Y-1330380D02*
X374058Y-1330380D01*
X374058Y-1330380D02*
X297858Y-1406580D01*
X297858Y-1406580D02*
X297858Y-1914580D01*
X297858Y-1914580D02*
X374058Y-1990780D01*
X374058Y-1990780D02*
X958258Y-1990780D01*
X412158Y-1660580D02*
X488358Y-1660580D01*
X450258Y-1698680D02*
X450258Y-1622480D01*
X932858Y-1660580D02*
G75*
G03X932858Y-1660580I-304800J0D01*
G01*
X1555020Y-1340500D02*
X1455020Y-1340500D01*
X1455020Y-1205500D02*
X1555020Y-1205500D01*
X2465000Y-1735000D02*
X2465000Y-1635000D01*
X2295000Y-1635000D02*
X2295000Y-1735000D01*
D13*
X1258600Y-1908440D02*
X1858600Y-1908440D01*
X1258600Y-1683440D02*
X1258600Y-1458440D01*
X1258600Y-1683440D02*
X1258600Y-1908440D01*
X1858600Y-1678440D02*
X1858600Y-1458440D01*
X1858600Y-1683440D02*
X1858600Y-1908440D01*
X1258600Y-1458440D02*
X1858600Y-1458440D01*
D12*
X587520Y-903000D02*
X587520Y-703000D01*
X802520Y-703000D02*
X802520Y-903000D01*
X1012520Y-1103000D02*
X1012520Y-903000D01*
X1227520Y-903000D02*
X1227520Y-1103000D01*
X2733000Y-1684000D02*
X2733000Y-414000D01*
X2733000Y-414000D02*
X3241000Y-414000D01*
X3241000Y-414000D02*
X3241000Y-1430000D01*
X2733000Y-1684000D02*
X2987000Y-1684000D01*
X3114000Y-1712000D02*
X3269000Y-1712000D01*
X2987000Y-1684000D02*
X2987000Y-1430000D01*
X2987000Y-1430000D02*
X3241000Y-1430000D01*
X3269000Y-1712000D02*
X3269000Y-1557000D01*
X1820071Y-1034286D02*
X1820071Y-1131429D01*
X1825786Y-1142857D01*
X1831500Y-1148571D01*
X1842929Y-1154286D01*
X1865786Y-1154286D01*
X1877214Y-1148571D01*
X1882929Y-1142857D01*
X1888643Y-1131429D01*
X1888643Y-1034286D01*
X2008643Y-1154286D02*
X1940071Y-1154286D01*
X1974357Y-1154286D02*
X1974357Y-1034286D01*
X1962929Y-1051429D01*
X1951500Y-1062857D01*
X1940071Y-1068571D01*
X2737348Y-246588D02*
X2737348Y-146588D01*
X2770681Y-218017D01*
X2804014Y-146588D01*
X2804014Y-246588D01*
X2846871Y-156112D02*
X2851633Y-151350D01*
X2861157Y-146588D01*
X2884967Y-146588D01*
X2894490Y-151350D01*
X2899252Y-156112D01*
X2904014Y-165636D01*
X2904014Y-175159D01*
X2899252Y-189445D01*
X2842109Y-246588D01*
X2904014Y-246588D01*
X2478353Y-1318238D02*
X2445020Y-1270619D01*
X2421211Y-1318238D02*
X2421211Y-1218238D01*
X2459306Y-1218238D01*
X2468830Y-1223000D01*
X2473592Y-1227762D01*
X2478353Y-1237286D01*
X2478353Y-1251571D01*
X2473592Y-1261095D01*
X2468830Y-1265857D01*
X2459306Y-1270619D01*
X2421211Y-1270619D01*
X2564068Y-1218238D02*
X2545020Y-1218238D01*
X2535496Y-1223000D01*
X2530734Y-1227762D01*
X2521211Y-1242048D01*
X2516449Y-1261095D01*
X2516449Y-1299191D01*
X2521211Y-1308714D01*
X2525972Y-1313476D01*
X2535496Y-1318238D01*
X2554544Y-1318238D01*
X2564068Y-1313476D01*
X2568830Y-1308714D01*
X2573592Y-1299191D01*
X2573592Y-1275381D01*
X2568830Y-1265857D01*
X2564068Y-1261095D01*
X2554544Y-1256333D01*
X2535496Y-1256333D01*
X2525972Y-1261095D01*
X2521211Y-1265857D01*
X2516449Y-1275381D01*
X2734068Y-583238D02*
X2734068Y-483238D01*
X2767401Y-554667D01*
X2800734Y-483238D01*
X2800734Y-583238D01*
X2867401Y-483238D02*
X2876925Y-483238D01*
X2886449Y-488000D01*
X2891210Y-492762D01*
X2895972Y-502286D01*
X2900734Y-521333D01*
X2900734Y-545143D01*
X2895972Y-564191D01*
X2891210Y-573714D01*
X2886449Y-578476D01*
X2876925Y-583238D01*
X2867401Y-583238D01*
X2857877Y-578476D01*
X2853115Y-573714D01*
X2848353Y-564191D01*
X2843591Y-545143D01*
X2843591Y-521333D01*
X2848353Y-502286D01*
X2853115Y-492762D01*
X2857877Y-488000D01*
X2867401Y-483238D01*
X2729068Y-413238D02*
X2729068Y-313238D01*
X2762401Y-384667D01*
X2795734Y-313238D01*
X2795734Y-413238D01*
X2895734Y-413238D02*
X2838591Y-413238D01*
X2867163Y-413238D02*
X2867163Y-313238D01*
X2857639Y-327524D01*
X2848115Y-337048D01*
X2838591Y-341810D01*
X1744993Y-174834D02*
X1740231Y-179596D01*
X1725946Y-184358D01*
X1716422Y-184358D01*
X1702136Y-179596D01*
X1692612Y-170072D01*
X1687850Y-160549D01*
X1683089Y-141501D01*
X1683089Y-127215D01*
X1687850Y-108168D01*
X1692612Y-98644D01*
X1702136Y-89120D01*
X1716422Y-84358D01*
X1725946Y-84358D01*
X1740231Y-89120D01*
X1744993Y-93882D01*
X1830708Y-117691D02*
X1830708Y-184358D01*
X1806898Y-79596D02*
X1783089Y-151025D01*
X1844993Y-151025D01*
X677234Y-475827D02*
X681996Y-480588D01*
X686758Y-494874D01*
X686758Y-504398D01*
X681996Y-518684D01*
X672472Y-528208D01*
X662949Y-532970D01*
X643901Y-537731D01*
X629615Y-537731D01*
X610568Y-532970D01*
X601044Y-528208D01*
X591520Y-518684D01*
X586758Y-504398D01*
X586758Y-494874D01*
X591520Y-480588D01*
X596282Y-475827D01*
X596282Y-437731D02*
X591520Y-432969D01*
X586758Y-423446D01*
X586758Y-399636D01*
X591520Y-390112D01*
X596282Y-385350D01*
X605806Y-380588D01*
X615330Y-380588D01*
X629615Y-385350D01*
X686758Y-442493D01*
X686758Y-380588D01*
X805193Y-545674D02*
X800431Y-550436D01*
X786146Y-555198D01*
X776622Y-555198D01*
X762336Y-550436D01*
X752812Y-540912D01*
X748050Y-531389D01*
X743289Y-512341D01*
X743289Y-498055D01*
X748050Y-479008D01*
X752812Y-469484D01*
X762336Y-459960D01*
X776622Y-455198D01*
X786146Y-455198D01*
X800431Y-459960D01*
X805193Y-464722D01*
X838527Y-455198D02*
X900431Y-455198D01*
X867098Y-493293D01*
X881384Y-493293D01*
X890908Y-498055D01*
X895670Y-502817D01*
X900431Y-512341D01*
X900431Y-536151D01*
X895670Y-545674D01*
X890908Y-550436D01*
X881384Y-555198D01*
X852812Y-555198D01*
X843289Y-550436D01*
X838527Y-545674D01*
X1209053Y-509478D02*
X1175720Y-461859D01*
X1151911Y-509478D02*
X1151911Y-409478D01*
X1190006Y-409478D01*
X1199530Y-414240D01*
X1204292Y-419002D01*
X1209053Y-428526D01*
X1209053Y-442811D01*
X1204292Y-452335D01*
X1199530Y-457097D01*
X1190006Y-461859D01*
X1151911Y-461859D01*
X1247149Y-419002D02*
X1251911Y-414240D01*
X1261434Y-409478D01*
X1285244Y-409478D01*
X1294768Y-414240D01*
X1299530Y-419002D01*
X1304292Y-428526D01*
X1304292Y-438049D01*
X1299530Y-452335D01*
X1242387Y-509478D01*
X1304292Y-509478D01*
X1035374Y-475827D02*
X1040136Y-480588D01*
X1044898Y-494874D01*
X1044898Y-504398D01*
X1040136Y-518684D01*
X1030612Y-528208D01*
X1021089Y-532970D01*
X1002041Y-537731D01*
X987755Y-537731D01*
X968708Y-532970D01*
X959184Y-528208D01*
X949660Y-518684D01*
X944898Y-504398D01*
X944898Y-494874D01*
X949660Y-480588D01*
X954422Y-475827D01*
X944898Y-385350D02*
X944898Y-432969D01*
X992517Y-437731D01*
X987755Y-432969D01*
X982993Y-423446D01*
X982993Y-399636D01*
X987755Y-390112D01*
X992517Y-385350D01*
X1002041Y-380588D01*
X1025850Y-380588D01*
X1035374Y-385350D01*
X1040136Y-390112D01*
X1044898Y-399636D01*
X1044898Y-423446D01*
X1040136Y-432969D01*
X1035374Y-437731D01*
X250210Y-131018D02*
X250210Y-31018D01*
X288306Y-31018D01*
X297830Y-35780D01*
X302592Y-40542D01*
X307353Y-50066D01*
X307353Y-64351D01*
X302592Y-73875D01*
X297830Y-78637D01*
X288306Y-83399D01*
X250210Y-83399D01*
X345449Y-40542D02*
X350210Y-35780D01*
X359734Y-31018D01*
X383544Y-31018D01*
X393068Y-35780D01*
X397830Y-40542D01*
X402591Y-50066D01*
X402591Y-59589D01*
X397830Y-73875D01*
X340687Y-131018D01*
X402591Y-131018D01*
X259912Y-1875367D02*
X264674Y-1880128D01*
X269436Y-1894414D01*
X269436Y-1903938D01*
X264674Y-1918224D01*
X255150Y-1927748D01*
X245627Y-1932509D01*
X226579Y-1937271D01*
X212293Y-1937271D01*
X193246Y-1932509D01*
X183722Y-1927748D01*
X174198Y-1918224D01*
X169436Y-1903938D01*
X169436Y-1894414D01*
X174198Y-1880128D01*
X178960Y-1875367D01*
X269436Y-1780128D02*
X269436Y-1837271D01*
X269436Y-1808700D02*
X169436Y-1808700D01*
X183722Y-1818224D01*
X193246Y-1827748D01*
X198007Y-1837271D01*
X1336278Y-1349667D02*
X1288659Y-1383000D01*
X1336278Y-1406809D02*
X1236278Y-1406809D01*
X1236278Y-1368714D01*
X1241040Y-1359190D01*
X1245802Y-1354429D01*
X1255326Y-1349667D01*
X1269611Y-1349667D01*
X1279135Y-1354429D01*
X1283897Y-1359190D01*
X1288659Y-1368714D01*
X1288659Y-1406809D01*
X1236278Y-1316333D02*
X1236278Y-1254429D01*
X1274373Y-1287762D01*
X1274373Y-1273476D01*
X1279135Y-1263952D01*
X1283897Y-1259190D01*
X1293421Y-1254429D01*
X1317231Y-1254429D01*
X1326754Y-1259190D01*
X1331516Y-1263952D01*
X1336278Y-1273476D01*
X1336278Y-1302048D01*
X1331516Y-1311571D01*
X1326754Y-1316333D01*
X2240714Y-1701667D02*
X2245476Y-1706428D01*
X2250238Y-1720714D01*
X2250238Y-1730238D01*
X2245476Y-1744524D01*
X2235952Y-1754048D01*
X2226429Y-1758809D01*
X2207381Y-1763571D01*
X2193095Y-1763571D01*
X2174048Y-1758809D01*
X2164524Y-1754048D01*
X2155000Y-1744524D01*
X2150238Y-1730238D01*
X2150238Y-1720714D01*
X2155000Y-1706428D01*
X2159762Y-1701667D01*
X2150238Y-1615952D02*
X2150238Y-1635000D01*
X2155000Y-1644524D01*
X2159762Y-1649286D01*
X2174048Y-1658809D01*
X2193095Y-1663571D01*
X2231191Y-1663571D01*
X2240714Y-1658809D01*
X2245476Y-1654048D01*
X2250238Y-1644524D01*
X2250238Y-1625476D01*
X2245476Y-1615952D01*
X2240714Y-1611190D01*
X2231191Y-1606428D01*
X2207381Y-1606428D01*
X2197857Y-1611190D01*
X2193095Y-1615952D01*
X2188333Y-1625476D01*
X2188333Y-1644524D01*
X2193095Y-1654048D01*
X2197857Y-1658809D01*
X2207381Y-1663571D01*
X1629098Y-1689947D02*
X1581479Y-1723280D01*
X1629098Y-1747089D02*
X1529098Y-1747089D01*
X1529098Y-1708994D01*
X1533860Y-1699470D01*
X1538622Y-1694708D01*
X1548146Y-1689947D01*
X1562431Y-1689947D01*
X1571955Y-1694708D01*
X1576717Y-1699470D01*
X1581479Y-1708994D01*
X1581479Y-1747089D01*
X1629098Y-1594708D02*
X1629098Y-1651851D01*
X1629098Y-1623280D02*
X1529098Y-1623280D01*
X1543384Y-1632804D01*
X1552908Y-1642328D01*
X1557669Y-1651851D01*
X970258Y-819667D02*
X922639Y-853000D01*
X970258Y-876809D02*
X870258Y-876809D01*
X870258Y-838714D01*
X875020Y-829190D01*
X879782Y-824428D01*
X889306Y-819667D01*
X903591Y-819667D01*
X913115Y-824428D01*
X917877Y-829190D01*
X922639Y-838714D01*
X922639Y-876809D01*
X903591Y-733952D02*
X970258Y-733952D01*
X865496Y-757762D02*
X936925Y-781571D01*
X936925Y-719667D01*
X1395258Y-1019667D02*
X1347639Y-1053000D01*
X1395258Y-1076810D02*
X1295258Y-1076810D01*
X1295258Y-1038714D01*
X1300020Y-1029190D01*
X1304782Y-1024428D01*
X1314306Y-1019667D01*
X1328591Y-1019667D01*
X1338115Y-1024428D01*
X1342877Y-1029190D01*
X1347639Y-1038714D01*
X1347639Y-1076810D01*
X1295258Y-929190D02*
X1295258Y-976809D01*
X1342877Y-981571D01*
X1338115Y-976809D01*
X1333353Y-967286D01*
X1333353Y-943476D01*
X1338115Y-933952D01*
X1342877Y-929190D01*
X1352401Y-924428D01*
X1376211Y-924428D01*
X1385734Y-929190D01*
X1390496Y-933952D01*
X1395258Y-943476D01*
X1395258Y-967286D01*
X1390496Y-976809D01*
X1385734Y-981571D01*
X2486191Y-1730238D02*
X2486191Y-1630238D01*
X2524286Y-1630238D01*
X2533810Y-1635000D01*
X2538572Y-1639762D01*
X2543333Y-1649286D01*
X2543333Y-1663571D01*
X2538572Y-1673095D01*
X2533810Y-1677857D01*
X2524286Y-1682619D01*
X2486191Y-1682619D01*
X2638572Y-1730238D02*
X2581429Y-1730238D01*
X2610000Y-1730238D02*
X2610000Y-1630238D01*
X2600476Y-1644524D01*
X2590952Y-1654048D01*
X2581429Y-1658809D01*
M02*
