G04 #@! TF.FileFunction,Soldermask,Top*
%FSLAX45Y45*%
G04 Gerber Fmt 4.5, Leading zero omitted, Abs format (unit mm)*
G04 Created by KiCad (PCBNEW 4.0.1-stable) date 12-Feb-16 11:08:01 AM*
%MOMM*%
G01*
G04 APERTURE LIST*
%ADD10C,0.100000*%
%ADD11R,1.770000X0.520000*%
%ADD12R,1.200000X1.150000*%
%ADD13R,1.700000X1.100000*%
%ADD14R,1.150000X1.200000*%
%ADD15R,2.432000X2.127200*%
%ADD16O,2.432000X2.127200*%
%ADD17R,3.999180X2.000200*%
%ADD18R,0.900000X1.300000*%
%ADD19R,1.650000X1.400000*%
%ADD20R,1.600000X1.600000*%
%ADD21R,1.900000X2.000000*%
%ADD22R,2.100000X1.300000*%
%ADD23R,2.127200X2.127200*%
%ADD24O,2.127200X2.127200*%
G04 APERTURE END LIST*
D10*
D11*
X2240500Y-279500D03*
X1580500Y-279500D03*
X2240500Y-344500D03*
X1580500Y-344500D03*
X2240500Y-409500D03*
X1580500Y-409500D03*
X2240500Y-474500D03*
X1580500Y-474500D03*
X2240500Y-539500D03*
X1580500Y-539500D03*
X2240500Y-604500D03*
X1580500Y-604500D03*
X2240500Y-669500D03*
X1580500Y-669500D03*
X2240500Y-734500D03*
X1580500Y-734500D03*
X2240500Y-799500D03*
X1580500Y-799500D03*
X2240500Y-864500D03*
X1580500Y-864500D03*
X2240500Y-929500D03*
X1580500Y-929500D03*
X2240500Y-994500D03*
X1580500Y-994500D03*
X2240500Y-1059500D03*
X1580500Y-1059500D03*
X2240500Y-1124500D03*
X1580500Y-1124500D03*
D12*
X2453670Y-201350D03*
X2603670Y-201350D03*
D13*
X2495020Y-1128000D03*
X2495020Y-938000D03*
D12*
X2453670Y-537900D03*
X2603670Y-537900D03*
X2453670Y-369625D03*
X2603670Y-369625D03*
X1430120Y-141660D03*
X1580120Y-141660D03*
D14*
X641520Y-135240D03*
X641520Y-285240D03*
X821860Y-135240D03*
X821860Y-285240D03*
D13*
X1228260Y-323020D03*
X1228260Y-133020D03*
D14*
X999660Y-285240D03*
X999660Y-135240D03*
D15*
X318940Y-1104320D03*
D16*
X318940Y-850320D03*
X318940Y-596320D03*
X318940Y-342320D03*
D17*
X352976Y-1660580D03*
X903140Y-1660580D03*
D18*
X1430020Y-1273000D03*
X1580020Y-1273000D03*
D19*
X2380000Y-1585000D03*
X2380000Y-1785000D03*
D20*
X1733600Y-1783440D03*
X1733600Y-1583440D03*
D21*
X1408600Y-1683440D03*
D22*
X695020Y-658000D03*
X695020Y-948000D03*
X1120020Y-858000D03*
X1120020Y-1148000D03*
D23*
X3114000Y-1557000D03*
D24*
X2860000Y-1557000D03*
X3114000Y-1303000D03*
X2860000Y-1303000D03*
X3114000Y-1049000D03*
X2860000Y-1049000D03*
X3114000Y-795000D03*
X2860000Y-795000D03*
X3114000Y-541000D03*
X2860000Y-541000D03*
M02*
