G04 #@! TF.FileFunction,Copper,L2,Bot,Signal*
%FSLAX45Y45*%
G04 Gerber Fmt 4.5, Leading zero omitted, Abs format (unit mm)*
G04 Created by KiCad (PCBNEW 4.0.1-stable) date 12-Feb-16 12:46:57 PM*
%MOMM*%
G01*
G04 APERTURE LIST*
%ADD10C,0.100000*%
%ADD11R,2.032000X1.727200*%
%ADD12O,2.032000X1.727200*%
%ADD13R,1.727200X1.727200*%
%ADD14O,1.727200X1.727200*%
%ADD15C,0.600000*%
%ADD16C,0.500000*%
%ADD17C,0.254000*%
G04 APERTURE END LIST*
D10*
D11*
X318940Y-1104320D03*
D12*
X318940Y-850320D03*
X318940Y-596320D03*
X318940Y-342320D03*
D13*
X3114000Y-1557000D03*
D14*
X2860000Y-1557000D03*
X3114000Y-1303000D03*
X2860000Y-1303000D03*
X3114000Y-1049000D03*
X2860000Y-1049000D03*
X3114000Y-795000D03*
X2860000Y-795000D03*
X3114000Y-541000D03*
X2860000Y-541000D03*
D15*
X1643500Y-1433500D03*
X3108000Y-283000D03*
X2240000Y-220000D03*
X1045020Y-1328200D03*
X875000Y-910081D03*
X821860Y-398200D03*
D16*
X1643500Y-1433500D02*
X1639000Y-1438000D01*
X3108000Y-283000D02*
X3109000Y-282000D01*
X3109000Y-282000D02*
X3109000Y-281000D01*
X875000Y-910081D02*
X875000Y-1158180D01*
X875000Y-1158180D02*
X1045020Y-1328200D01*
D17*
G36*
X3287300Y-2037300D02*
X62700Y-2037300D01*
X62700Y-342320D01*
X150606Y-342320D01*
X162013Y-399669D01*
X194498Y-448287D01*
X225977Y-469320D01*
X194498Y-490353D01*
X162013Y-538971D01*
X150606Y-596320D01*
X162013Y-653669D01*
X194498Y-702287D01*
X225977Y-723320D01*
X194498Y-744353D01*
X162013Y-792971D01*
X150606Y-850320D01*
X162013Y-907669D01*
X194498Y-956287D01*
X195931Y-957244D01*
X193808Y-957644D01*
X172196Y-971551D01*
X157697Y-992771D01*
X152596Y-1017960D01*
X152596Y-1190680D01*
X157024Y-1214212D01*
X170931Y-1235824D01*
X192151Y-1250323D01*
X217340Y-1255424D01*
X420540Y-1255424D01*
X444072Y-1250996D01*
X465684Y-1237089D01*
X480183Y-1215869D01*
X485284Y-1190680D01*
X485284Y-1017960D01*
X480856Y-994428D01*
X466949Y-972816D01*
X445729Y-958317D01*
X441596Y-957480D01*
X443381Y-956287D01*
X475867Y-907669D01*
X487274Y-850320D01*
X475867Y-792971D01*
X443381Y-744353D01*
X411903Y-723320D01*
X443381Y-702287D01*
X475867Y-653669D01*
X487274Y-596320D01*
X476271Y-541000D01*
X2707204Y-541000D01*
X2718612Y-598349D01*
X2751097Y-646967D01*
X2782575Y-668000D01*
X2751097Y-689033D01*
X2718612Y-737651D01*
X2707204Y-795000D01*
X2718612Y-852349D01*
X2751097Y-900967D01*
X2782575Y-922000D01*
X2751097Y-943033D01*
X2718612Y-991651D01*
X2707204Y-1049000D01*
X2718612Y-1106349D01*
X2751097Y-1154967D01*
X2782575Y-1176000D01*
X2751097Y-1197033D01*
X2718612Y-1245651D01*
X2707204Y-1303000D01*
X2718612Y-1360349D01*
X2751097Y-1408967D01*
X2782575Y-1430000D01*
X2751097Y-1451033D01*
X2718612Y-1499651D01*
X2707204Y-1557000D01*
X2718612Y-1614349D01*
X2751097Y-1662967D01*
X2799715Y-1695453D01*
X2857064Y-1706860D01*
X2862936Y-1706860D01*
X2920285Y-1695453D01*
X2966844Y-1664343D01*
X2967324Y-1666892D01*
X2981231Y-1688504D01*
X3002451Y-1703003D01*
X3027640Y-1708104D01*
X3200360Y-1708104D01*
X3223892Y-1703676D01*
X3245504Y-1689769D01*
X3260003Y-1668549D01*
X3265104Y-1643360D01*
X3265104Y-1470640D01*
X3260676Y-1447108D01*
X3246769Y-1425496D01*
X3225549Y-1410997D01*
X3221187Y-1410114D01*
X3222903Y-1408967D01*
X3255388Y-1360349D01*
X3266796Y-1303000D01*
X3255388Y-1245651D01*
X3222903Y-1197033D01*
X3191425Y-1176000D01*
X3222903Y-1154967D01*
X3255388Y-1106349D01*
X3266796Y-1049000D01*
X3255388Y-991651D01*
X3222903Y-943033D01*
X3190577Y-921434D01*
X3202849Y-915682D01*
X3242269Y-872495D01*
X3259496Y-830903D01*
X3247382Y-807700D01*
X3126700Y-807700D01*
X3126700Y-809700D01*
X3101300Y-809700D01*
X3101300Y-807700D01*
X3099300Y-807700D01*
X3099300Y-782300D01*
X3101300Y-782300D01*
X3101300Y-553700D01*
X3126700Y-553700D01*
X3126700Y-782300D01*
X3247382Y-782300D01*
X3259496Y-759097D01*
X3242269Y-717505D01*
X3202849Y-674318D01*
X3189369Y-668000D01*
X3202849Y-661682D01*
X3242269Y-618495D01*
X3259496Y-576903D01*
X3247382Y-553700D01*
X3126700Y-553700D01*
X3101300Y-553700D01*
X3099300Y-553700D01*
X3099300Y-528300D01*
X3101300Y-528300D01*
X3101300Y-407553D01*
X3126700Y-407553D01*
X3126700Y-528300D01*
X3247382Y-528300D01*
X3259496Y-505097D01*
X3242269Y-463505D01*
X3202849Y-420318D01*
X3149903Y-395503D01*
X3126700Y-407553D01*
X3101300Y-407553D01*
X3078097Y-395503D01*
X3025151Y-420318D01*
X2986999Y-462116D01*
X2968903Y-435033D01*
X2920285Y-402547D01*
X2862936Y-391140D01*
X2857064Y-391140D01*
X2799715Y-402547D01*
X2751097Y-435033D01*
X2718612Y-483651D01*
X2707204Y-541000D01*
X476271Y-541000D01*
X475867Y-538971D01*
X443381Y-490353D01*
X411903Y-469320D01*
X443381Y-448287D01*
X475867Y-399669D01*
X487274Y-342320D01*
X475867Y-284971D01*
X443381Y-236353D01*
X394763Y-203867D01*
X337415Y-192460D01*
X300466Y-192460D01*
X243117Y-203867D01*
X194498Y-236353D01*
X162013Y-284971D01*
X150606Y-342320D01*
X62700Y-342320D01*
X62700Y-62700D01*
X3287300Y-62700D01*
X3287300Y-2037300D01*
X3287300Y-2037300D01*
G37*
X3287300Y-2037300D02*
X62700Y-2037300D01*
X62700Y-342320D01*
X150606Y-342320D01*
X162013Y-399669D01*
X194498Y-448287D01*
X225977Y-469320D01*
X194498Y-490353D01*
X162013Y-538971D01*
X150606Y-596320D01*
X162013Y-653669D01*
X194498Y-702287D01*
X225977Y-723320D01*
X194498Y-744353D01*
X162013Y-792971D01*
X150606Y-850320D01*
X162013Y-907669D01*
X194498Y-956287D01*
X195931Y-957244D01*
X193808Y-957644D01*
X172196Y-971551D01*
X157697Y-992771D01*
X152596Y-1017960D01*
X152596Y-1190680D01*
X157024Y-1214212D01*
X170931Y-1235824D01*
X192151Y-1250323D01*
X217340Y-1255424D01*
X420540Y-1255424D01*
X444072Y-1250996D01*
X465684Y-1237089D01*
X480183Y-1215869D01*
X485284Y-1190680D01*
X485284Y-1017960D01*
X480856Y-994428D01*
X466949Y-972816D01*
X445729Y-958317D01*
X441596Y-957480D01*
X443381Y-956287D01*
X475867Y-907669D01*
X487274Y-850320D01*
X475867Y-792971D01*
X443381Y-744353D01*
X411903Y-723320D01*
X443381Y-702287D01*
X475867Y-653669D01*
X487274Y-596320D01*
X476271Y-541000D01*
X2707204Y-541000D01*
X2718612Y-598349D01*
X2751097Y-646967D01*
X2782575Y-668000D01*
X2751097Y-689033D01*
X2718612Y-737651D01*
X2707204Y-795000D01*
X2718612Y-852349D01*
X2751097Y-900967D01*
X2782575Y-922000D01*
X2751097Y-943033D01*
X2718612Y-991651D01*
X2707204Y-1049000D01*
X2718612Y-1106349D01*
X2751097Y-1154967D01*
X2782575Y-1176000D01*
X2751097Y-1197033D01*
X2718612Y-1245651D01*
X2707204Y-1303000D01*
X2718612Y-1360349D01*
X2751097Y-1408967D01*
X2782575Y-1430000D01*
X2751097Y-1451033D01*
X2718612Y-1499651D01*
X2707204Y-1557000D01*
X2718612Y-1614349D01*
X2751097Y-1662967D01*
X2799715Y-1695453D01*
X2857064Y-1706860D01*
X2862936Y-1706860D01*
X2920285Y-1695453D01*
X2966844Y-1664343D01*
X2967324Y-1666892D01*
X2981231Y-1688504D01*
X3002451Y-1703003D01*
X3027640Y-1708104D01*
X3200360Y-1708104D01*
X3223892Y-1703676D01*
X3245504Y-1689769D01*
X3260003Y-1668549D01*
X3265104Y-1643360D01*
X3265104Y-1470640D01*
X3260676Y-1447108D01*
X3246769Y-1425496D01*
X3225549Y-1410997D01*
X3221187Y-1410114D01*
X3222903Y-1408967D01*
X3255388Y-1360349D01*
X3266796Y-1303000D01*
X3255388Y-1245651D01*
X3222903Y-1197033D01*
X3191425Y-1176000D01*
X3222903Y-1154967D01*
X3255388Y-1106349D01*
X3266796Y-1049000D01*
X3255388Y-991651D01*
X3222903Y-943033D01*
X3190577Y-921434D01*
X3202849Y-915682D01*
X3242269Y-872495D01*
X3259496Y-830903D01*
X3247382Y-807700D01*
X3126700Y-807700D01*
X3126700Y-809700D01*
X3101300Y-809700D01*
X3101300Y-807700D01*
X3099300Y-807700D01*
X3099300Y-782300D01*
X3101300Y-782300D01*
X3101300Y-553700D01*
X3126700Y-553700D01*
X3126700Y-782300D01*
X3247382Y-782300D01*
X3259496Y-759097D01*
X3242269Y-717505D01*
X3202849Y-674318D01*
X3189369Y-668000D01*
X3202849Y-661682D01*
X3242269Y-618495D01*
X3259496Y-576903D01*
X3247382Y-553700D01*
X3126700Y-553700D01*
X3101300Y-553700D01*
X3099300Y-553700D01*
X3099300Y-528300D01*
X3101300Y-528300D01*
X3101300Y-407553D01*
X3126700Y-407553D01*
X3126700Y-528300D01*
X3247382Y-528300D01*
X3259496Y-505097D01*
X3242269Y-463505D01*
X3202849Y-420318D01*
X3149903Y-395503D01*
X3126700Y-407553D01*
X3101300Y-407553D01*
X3078097Y-395503D01*
X3025151Y-420318D01*
X2986999Y-462116D01*
X2968903Y-435033D01*
X2920285Y-402547D01*
X2862936Y-391140D01*
X2857064Y-391140D01*
X2799715Y-402547D01*
X2751097Y-435033D01*
X2718612Y-483651D01*
X2707204Y-541000D01*
X476271Y-541000D01*
X475867Y-538971D01*
X443381Y-490353D01*
X411903Y-469320D01*
X443381Y-448287D01*
X475867Y-399669D01*
X487274Y-342320D01*
X475867Y-284971D01*
X443381Y-236353D01*
X394763Y-203867D01*
X337415Y-192460D01*
X300466Y-192460D01*
X243117Y-203867D01*
X194498Y-236353D01*
X162013Y-284971D01*
X150606Y-342320D01*
X62700Y-342320D01*
X62700Y-62700D01*
X3287300Y-62700D01*
X3287300Y-2037300D01*
M02*
