M48
;DRILL file {KiCad 4.0.1-stable} date 12-Feb-16 10:41:31 AM
;FORMAT={-:-/ absolute / metric / decimal}
FMAT,2
METRIC,TZ
T1C0.400
T2C1.016
T3C1.020
%
G90
G05
M71
T1
X4.33Y-4.51
X7.71Y-20.38
X7.87Y-19.32
X10.25Y-23.67
X10.72Y-22.06
X11.67Y-33.51
X13.77Y-32.4
X13.97Y-43.67
X14.03Y-37.2
X16.26Y-33.56
X16.85Y-9.44
X17.32Y-23.56
X17.67Y-8.98
X17.87Y-21.38
X17.9Y-3.21
X18.04Y-13.33
X18.84Y-13.18
X18.85Y-21.8
X19.94Y-16.68
X20.23Y-21.6
X21.12Y-20.22
X21.14Y-38.75
X21.88Y-16.98
X25.05Y-41.7
X25.37Y-20.1
X25.47Y-22.06
X25.67Y-25.63
X26.Y-18.75
X26.18Y-17.51
X26.67Y-25.56
X26.95Y-8.62
X27.16Y-20.62
X27.25Y-41.7
X28.36Y-36.24
X28.45Y-12.5
X29.16Y-16.79
X29.67Y-17.87
X30.1Y-6.75
X30.19Y-18.8
X30.47Y-4.98
X30.79Y-22.01
X31.07Y-25.65
X31.28Y-32.78
X32.45Y-7.5
X32.6Y-28.1
X32.85Y-34.67
X33.61Y-15.43
X34.25Y-5.7
X34.31Y-13.27
X34.8Y-20.2
X35.33Y-23.69
X36.07Y-12.52
X36.17Y-32.67
X36.51Y-19.71
X36.83Y-30.05
X37.41Y-42.34
X37.89Y-7.77
X38.08Y-17.
X38.09Y-19.18
X38.49Y-23.95
X38.63Y-14.23
X39.27Y-21.44
X39.775Y-18.505
X40.01Y-26.87
X40.14Y-42.37
X40.49Y-7.75
X40.75Y-23.96
X40.86Y-15.34
X41.37Y-12.13
X41.52Y-26.92
X42.65Y-26.79
X42.8Y-23.79
X42.95Y-42.38
X43.01Y-4.04
X43.64Y-26.79
X44.34Y-8.92
X45.67Y-3.8
X46.06Y-9.6
X46.29Y-42.25
X47.1Y-24.56
X47.33Y-19.49
X47.36Y-10.87
X48.28Y-7.75
X49.4Y-36.28
X50.16Y-37.18
X50.5Y-28.68
X50.6Y-33.77
X50.68Y-8.97
X50.95Y-36.9
X51.19Y-11.59
X51.48Y-12.42
X52.94Y-10.65
X56.07Y-30.95
X59.75Y-18.72
X60.56Y-40.53
T2
X1.11Y-17.73
X1.11Y-20.27
X1.11Y-22.81
X1.11Y-25.35
X1.11Y-27.89
X3.65Y-17.73
X3.65Y-20.27
X3.65Y-22.81
X3.65Y-25.35
X3.65Y-27.89
X4.51Y1.04
X4.51Y-1.5
X7.05Y1.04
X7.05Y-1.5
X7.63Y-6.223
X7.63Y-45.72
X9.59Y1.04
X9.59Y-1.5
X12.13Y1.04
X12.13Y-1.5
X14.67Y1.04
X14.67Y-1.5
X17.21Y1.04
X17.21Y-1.5
X19.75Y1.04
X19.75Y-1.5
X22.29Y1.04
X22.29Y-1.5
X24.775Y-6.223
X24.775Y-45.72
X24.83Y1.04
X24.83Y-1.5
X27.37Y1.04
X27.37Y-1.5
X29.91Y1.04
X29.91Y-1.5
X32.45Y1.04
X32.45Y-1.5
X34.99Y1.04
X34.99Y-1.5
X37.53Y1.04
X37.53Y-1.5
X40.07Y1.04
X40.07Y-1.5
X42.61Y1.04
X42.61Y-1.5
X43.252Y-13.806
X43.252Y-17.616
X45.15Y1.04
X45.15Y-1.5
X45.792Y-13.806
X45.792Y-17.616
X47.69Y1.04
X47.69Y-1.5
X48.332Y-13.806
X48.332Y-17.616
X50.23Y1.04
X50.23Y-1.5
X52.77Y1.04
X52.77Y-1.5
X55.1Y-33.29
X55.1Y-35.83
X55.1Y-38.37
X55.1Y-40.91
X55.1Y-43.45
X55.14Y-6.81
X55.14Y-9.35
X55.14Y-11.89
X55.14Y-14.43
X55.14Y-16.97
X57.64Y-33.29
X57.64Y-35.83
X57.64Y-38.37
X57.64Y-40.91
X57.64Y-43.45
X57.68Y-6.81
X57.68Y-9.35
X57.68Y-11.89
X57.68Y-14.43
X57.68Y-16.97
T3
X31.14Y-42.87
X31.14Y-45.87
X37.97Y-33.66
X37.97Y-38.16
X44.47Y-33.66
X44.47Y-38.16
T0
M30
