G04 #@! TF.FileFunction,Legend,Top*
%FSLAX46Y46*%
G04 Gerber Fmt 4.6, Leading zero omitted, Abs format (unit mm)*
G04 Created by KiCad (PCBNEW 4.0.1-stable) date 12-Feb-16 11:10:28 AM*
%MOMM*%
G01*
G04 APERTURE LIST*
%ADD10C,0.100000*%
%ADD11C,0.150000*%
G04 APERTURE END LIST*
D10*
D11*
X31225000Y-24923000D02*
X32225000Y-24923000D01*
X32225000Y-23223000D02*
X31225000Y-23223000D01*
X33700000Y-21120000D02*
X32700000Y-21120000D01*
X32700000Y-22820000D02*
X33700000Y-22820000D01*
X29701000Y-16287000D02*
X30701000Y-16287000D01*
X30701000Y-14587000D02*
X29701000Y-14587000D01*
X24380000Y-18460000D02*
X24380000Y-17460000D01*
X22680000Y-17460000D02*
X22680000Y-18460000D01*
X28160000Y-21200000D02*
X27160000Y-21200000D01*
X27160000Y-22900000D02*
X28160000Y-22900000D01*
X28160000Y-23260000D02*
X27160000Y-23260000D01*
X27160000Y-24960000D02*
X28160000Y-24960000D01*
X39970000Y-30100000D02*
X38970000Y-30100000D01*
X38970000Y-31800000D02*
X39970000Y-31800000D01*
X46734000Y-46304000D02*
X46734000Y-43604000D01*
X45234000Y-46304000D02*
X45234000Y-43604000D01*
X46134000Y-44804000D02*
X45884000Y-44804000D01*
X45884000Y-44804000D02*
X46034000Y-44954000D01*
X45634000Y-45054000D02*
X46334000Y-45054000D01*
X45984000Y-44704000D02*
X45984000Y-44354000D01*
X45984000Y-45054000D02*
X45634000Y-44704000D01*
X45634000Y-44704000D02*
X46334000Y-44704000D01*
X46334000Y-44704000D02*
X45984000Y-45054000D01*
X37590000Y-46304000D02*
X37590000Y-43604000D01*
X36090000Y-46304000D02*
X36090000Y-43604000D01*
X36990000Y-44804000D02*
X36740000Y-44804000D01*
X36740000Y-44804000D02*
X36890000Y-44954000D01*
X36490000Y-45054000D02*
X37190000Y-45054000D01*
X36840000Y-44704000D02*
X36840000Y-44354000D01*
X36840000Y-45054000D02*
X36490000Y-44704000D01*
X36490000Y-44704000D02*
X37190000Y-44704000D01*
X37190000Y-44704000D02*
X36840000Y-45054000D01*
X1800000Y-5766000D02*
X1800000Y-8466000D01*
X3300000Y-5766000D02*
X3300000Y-8466000D01*
X2400000Y-7266000D02*
X2650000Y-7266000D01*
X2650000Y-7266000D02*
X2500000Y-7116000D01*
X2900000Y-7016000D02*
X2200000Y-7016000D01*
X2550000Y-7366000D02*
X2550000Y-7716000D01*
X2550000Y-7016000D02*
X2900000Y-7366000D01*
X2900000Y-7366000D02*
X2200000Y-7366000D01*
X2200000Y-7366000D02*
X2550000Y-7016000D01*
X40900000Y-5100000D02*
X40900000Y-7800000D01*
X42400000Y-5100000D02*
X42400000Y-7800000D01*
X41500000Y-6600000D02*
X41750000Y-6600000D01*
X41750000Y-6600000D02*
X41600000Y-6450000D01*
X42000000Y-6350000D02*
X41300000Y-6350000D01*
X41650000Y-6700000D02*
X41650000Y-7050000D01*
X41650000Y-6350000D02*
X42000000Y-6700000D01*
X42000000Y-6700000D02*
X41300000Y-6700000D01*
X41300000Y-6700000D02*
X41650000Y-6350000D01*
X38200000Y-5100000D02*
X38200000Y-7800000D01*
X39700000Y-5100000D02*
X39700000Y-7800000D01*
X38800000Y-6600000D02*
X39050000Y-6600000D01*
X39050000Y-6600000D02*
X38900000Y-6450000D01*
X39300000Y-6350000D02*
X38600000Y-6350000D01*
X38950000Y-6700000D02*
X38950000Y-7050000D01*
X38950000Y-6350000D02*
X39300000Y-6700000D01*
X39300000Y-6700000D02*
X38600000Y-6700000D01*
X38600000Y-6700000D02*
X38950000Y-6350000D01*
X46400000Y-5100000D02*
X46400000Y-7800000D01*
X47900000Y-5100000D02*
X47900000Y-7800000D01*
X47000000Y-6600000D02*
X47250000Y-6600000D01*
X47250000Y-6600000D02*
X47100000Y-6450000D01*
X47500000Y-6350000D02*
X46800000Y-6350000D01*
X47150000Y-6700000D02*
X47150000Y-7050000D01*
X47150000Y-6350000D02*
X47500000Y-6700000D01*
X47500000Y-6700000D02*
X46800000Y-6700000D01*
X46800000Y-6700000D02*
X47150000Y-6350000D01*
X43600000Y-5100000D02*
X43600000Y-7800000D01*
X45100000Y-5100000D02*
X45100000Y-7800000D01*
X44200000Y-6600000D02*
X44450000Y-6600000D01*
X44450000Y-6600000D02*
X44300000Y-6450000D01*
X44700000Y-6350000D02*
X44000000Y-6350000D01*
X44350000Y-6700000D02*
X44350000Y-7050000D01*
X44350000Y-6350000D02*
X44700000Y-6700000D01*
X44700000Y-6700000D02*
X44000000Y-6700000D01*
X44000000Y-6700000D02*
X44350000Y-6350000D01*
X40638000Y-46304000D02*
X40638000Y-43604000D01*
X39138000Y-46304000D02*
X39138000Y-43604000D01*
X40038000Y-44804000D02*
X39788000Y-44804000D01*
X39788000Y-44804000D02*
X39938000Y-44954000D01*
X39538000Y-45054000D02*
X40238000Y-45054000D01*
X39888000Y-44704000D02*
X39888000Y-44354000D01*
X39888000Y-45054000D02*
X39538000Y-44704000D01*
X39538000Y-44704000D02*
X40238000Y-44704000D01*
X40238000Y-44704000D02*
X39888000Y-45054000D01*
X43686000Y-46304000D02*
X43686000Y-43604000D01*
X42186000Y-46304000D02*
X42186000Y-43604000D01*
X43086000Y-44804000D02*
X42836000Y-44804000D01*
X42836000Y-44804000D02*
X42986000Y-44954000D01*
X42586000Y-45054000D02*
X43286000Y-45054000D01*
X42936000Y-44704000D02*
X42936000Y-44354000D01*
X42936000Y-45054000D02*
X42586000Y-44704000D01*
X42586000Y-44704000D02*
X43286000Y-44704000D01*
X43286000Y-44704000D02*
X42936000Y-45054000D01*
X47062000Y-12536000D02*
X41982000Y-12536000D01*
X41982000Y-12536000D02*
X41982000Y-15076000D01*
X41982000Y-15076000D02*
X47062000Y-15076000D01*
X49882000Y-15356000D02*
X48332000Y-15356000D01*
X47062000Y-15076000D02*
X47062000Y-12536000D01*
X48332000Y-12256000D02*
X49882000Y-12256000D01*
X49882000Y-12256000D02*
X49882000Y-15356000D01*
X47062000Y-16346000D02*
X41982000Y-16346000D01*
X41982000Y-16346000D02*
X41982000Y-18886000D01*
X41982000Y-18886000D02*
X47062000Y-18886000D01*
X49882000Y-19166000D02*
X48332000Y-19166000D01*
X47062000Y-18886000D02*
X47062000Y-16346000D01*
X48332000Y-16066000D02*
X49882000Y-16066000D01*
X49882000Y-16066000D02*
X49882000Y-19166000D01*
X58950000Y-5540000D02*
X58950000Y-18240000D01*
X58950000Y-18240000D02*
X53870000Y-18240000D01*
X53870000Y-18240000D02*
X53870000Y-8080000D01*
X58950000Y-5540000D02*
X56410000Y-5540000D01*
X55140000Y-5260000D02*
X53590000Y-5260000D01*
X56410000Y-5540000D02*
X56410000Y-8080000D01*
X56410000Y-8080000D02*
X53870000Y-8080000D01*
X53590000Y-5260000D02*
X53590000Y-6810000D01*
X-160000Y-29160000D02*
X-160000Y-16460000D01*
X-160000Y-16460000D02*
X4920000Y-16460000D01*
X4920000Y-16460000D02*
X4920000Y-26620000D01*
X-160000Y-29160000D02*
X2380000Y-29160000D01*
X3650000Y-29440000D02*
X5200000Y-29440000D01*
X2380000Y-29160000D02*
X2380000Y-26620000D01*
X2380000Y-26620000D02*
X4920000Y-26620000D01*
X5200000Y-29440000D02*
X5200000Y-27890000D01*
X58910000Y-32020000D02*
X58910000Y-44720000D01*
X58910000Y-44720000D02*
X53830000Y-44720000D01*
X53830000Y-44720000D02*
X53830000Y-34560000D01*
X58910000Y-32020000D02*
X56370000Y-32020000D01*
X55100000Y-31740000D02*
X53550000Y-31740000D01*
X56370000Y-32020000D02*
X56370000Y-34560000D01*
X56370000Y-34560000D02*
X53830000Y-34560000D01*
X53550000Y-31740000D02*
X53550000Y-33290000D01*
X34490000Y-54870000D02*
X33490000Y-55870000D01*
X33490000Y-55870000D02*
X28790000Y-55870000D01*
X34490000Y-45870000D02*
X34490000Y-54870000D01*
X27790000Y-45870000D02*
X27790000Y-54870000D01*
X27790000Y-54870000D02*
X28790000Y-55870000D01*
X29640000Y-45870000D02*
X27790000Y-45870000D01*
X33340000Y-45870000D02*
X34490000Y-45870000D01*
X32640000Y-45870000D02*
X33340000Y-45870000D01*
X19475000Y-34370000D02*
X19475000Y-35370000D01*
X18125000Y-35370000D02*
X18125000Y-34370000D01*
X19825000Y-35370000D02*
X19825000Y-34370000D01*
X21175000Y-34370000D02*
X21175000Y-35370000D01*
X3907000Y-7866000D02*
X3907000Y-6866000D01*
X5257000Y-6866000D02*
X5257000Y-7866000D01*
X41220000Y-36710000D02*
X41870000Y-35260000D01*
X41220000Y-36710000D02*
X41220000Y-38160000D01*
X41220000Y-33660000D02*
X41220000Y-35110000D01*
X39120000Y-33660000D02*
X43320000Y-33660000D01*
X44470000Y-36960000D02*
X44470000Y-34960000D01*
X39120000Y-38160000D02*
X43320000Y-38160000D01*
X37970000Y-34910000D02*
X37970000Y-36910000D01*
X-588095Y-3052381D02*
X-588095Y-2052381D01*
X-207142Y-2052381D01*
X-111904Y-2100000D01*
X-64285Y-2147619D01*
X-16666Y-2242857D01*
X-16666Y-2385714D01*
X-64285Y-2480952D01*
X-111904Y-2528571D01*
X-207142Y-2576190D01*
X-588095Y-2576190D01*
X316667Y-2052381D02*
X935715Y-2052381D01*
X602381Y-2433333D01*
X745239Y-2433333D01*
X840477Y-2480952D01*
X888096Y-2528571D01*
X935715Y-2623810D01*
X935715Y-2861905D01*
X888096Y-2957143D01*
X840477Y-3004762D01*
X745239Y-3052381D01*
X459524Y-3052381D01*
X364286Y-3004762D01*
X316667Y-2957143D01*
X34483334Y-24557143D02*
X34435715Y-24604762D01*
X34292858Y-24652381D01*
X34197620Y-24652381D01*
X34054762Y-24604762D01*
X33959524Y-24509524D01*
X33911905Y-24414286D01*
X33864286Y-24223810D01*
X33864286Y-24080952D01*
X33911905Y-23890476D01*
X33959524Y-23795238D01*
X34054762Y-23700000D01*
X34197620Y-23652381D01*
X34292858Y-23652381D01*
X34435715Y-23700000D01*
X34483334Y-23747619D01*
X34816667Y-23652381D02*
X35435715Y-23652381D01*
X35102381Y-24033333D01*
X35245239Y-24033333D01*
X35340477Y-24080952D01*
X35388096Y-24128571D01*
X35435715Y-24223810D01*
X35435715Y-24461905D01*
X35388096Y-24557143D01*
X35340477Y-24604762D01*
X35245239Y-24652381D01*
X34959524Y-24652381D01*
X34864286Y-24604762D01*
X34816667Y-24557143D01*
X35983334Y-22257143D02*
X35935715Y-22304762D01*
X35792858Y-22352381D01*
X35697620Y-22352381D01*
X35554762Y-22304762D01*
X35459524Y-22209524D01*
X35411905Y-22114286D01*
X35364286Y-21923810D01*
X35364286Y-21780952D01*
X35411905Y-21590476D01*
X35459524Y-21495238D01*
X35554762Y-21400000D01*
X35697620Y-21352381D01*
X35792858Y-21352381D01*
X35935715Y-21400000D01*
X35983334Y-21447619D01*
X36840477Y-21685714D02*
X36840477Y-22352381D01*
X36602381Y-21304762D02*
X36364286Y-22019048D01*
X36983334Y-22019048D01*
X30034334Y-17894143D02*
X29986715Y-17941762D01*
X29843858Y-17989381D01*
X29748620Y-17989381D01*
X29605762Y-17941762D01*
X29510524Y-17846524D01*
X29462905Y-17751286D01*
X29415286Y-17560810D01*
X29415286Y-17417952D01*
X29462905Y-17227476D01*
X29510524Y-17132238D01*
X29605762Y-17037000D01*
X29748620Y-16989381D01*
X29843858Y-16989381D01*
X29986715Y-17037000D01*
X30034334Y-17084619D01*
X30367667Y-16989381D02*
X31034334Y-16989381D01*
X30605762Y-17989381D01*
X23383334Y-20857143D02*
X23335715Y-20904762D01*
X23192858Y-20952381D01*
X23097620Y-20952381D01*
X22954762Y-20904762D01*
X22859524Y-20809524D01*
X22811905Y-20714286D01*
X22764286Y-20523810D01*
X22764286Y-20380952D01*
X22811905Y-20190476D01*
X22859524Y-20095238D01*
X22954762Y-20000000D01*
X23097620Y-19952381D01*
X23192858Y-19952381D01*
X23335715Y-20000000D01*
X23383334Y-20047619D01*
X23954762Y-20380952D02*
X23859524Y-20333333D01*
X23811905Y-20285714D01*
X23764286Y-20190476D01*
X23764286Y-20142857D01*
X23811905Y-20047619D01*
X23859524Y-20000000D01*
X23954762Y-19952381D01*
X24145239Y-19952381D01*
X24240477Y-20000000D01*
X24288096Y-20047619D01*
X24335715Y-20142857D01*
X24335715Y-20190476D01*
X24288096Y-20285714D01*
X24240477Y-20333333D01*
X24145239Y-20380952D01*
X23954762Y-20380952D01*
X23859524Y-20428571D01*
X23811905Y-20476190D01*
X23764286Y-20571429D01*
X23764286Y-20761905D01*
X23811905Y-20857143D01*
X23859524Y-20904762D01*
X23954762Y-20952381D01*
X24145239Y-20952381D01*
X24240477Y-20904762D01*
X24288096Y-20857143D01*
X24335715Y-20761905D01*
X24335715Y-20571429D01*
X24288096Y-20476190D01*
X24240477Y-20428571D01*
X24145239Y-20380952D01*
X27007143Y-20557143D02*
X26959524Y-20604762D01*
X26816667Y-20652381D01*
X26721429Y-20652381D01*
X26578571Y-20604762D01*
X26483333Y-20509524D01*
X26435714Y-20414286D01*
X26388095Y-20223810D01*
X26388095Y-20080952D01*
X26435714Y-19890476D01*
X26483333Y-19795238D01*
X26578571Y-19700000D01*
X26721429Y-19652381D01*
X26816667Y-19652381D01*
X26959524Y-19700000D01*
X27007143Y-19747619D01*
X27959524Y-20652381D02*
X27388095Y-20652381D01*
X27673809Y-20652381D02*
X27673809Y-19652381D01*
X27578571Y-19795238D01*
X27483333Y-19890476D01*
X27388095Y-19938095D01*
X28911905Y-20652381D02*
X28340476Y-20652381D01*
X28626190Y-20652381D02*
X28626190Y-19652381D01*
X28530952Y-19795238D01*
X28435714Y-19890476D01*
X28340476Y-19938095D01*
X27007143Y-26257143D02*
X26959524Y-26304762D01*
X26816667Y-26352381D01*
X26721429Y-26352381D01*
X26578571Y-26304762D01*
X26483333Y-26209524D01*
X26435714Y-26114286D01*
X26388095Y-25923810D01*
X26388095Y-25780952D01*
X26435714Y-25590476D01*
X26483333Y-25495238D01*
X26578571Y-25400000D01*
X26721429Y-25352381D01*
X26816667Y-25352381D01*
X26959524Y-25400000D01*
X27007143Y-25447619D01*
X27959524Y-26352381D02*
X27388095Y-26352381D01*
X27673809Y-26352381D02*
X27673809Y-25352381D01*
X27578571Y-25495238D01*
X27483333Y-25590476D01*
X27388095Y-25638095D01*
X28292857Y-25352381D02*
X28911905Y-25352381D01*
X28578571Y-25733333D01*
X28721429Y-25733333D01*
X28816667Y-25780952D01*
X28864286Y-25828571D01*
X28911905Y-25923810D01*
X28911905Y-26161905D01*
X28864286Y-26257143D01*
X28816667Y-26304762D01*
X28721429Y-26352381D01*
X28435714Y-26352381D01*
X28340476Y-26304762D01*
X28292857Y-26257143D01*
X42257143Y-31257143D02*
X42209524Y-31304762D01*
X42066667Y-31352381D01*
X41971429Y-31352381D01*
X41828571Y-31304762D01*
X41733333Y-31209524D01*
X41685714Y-31114286D01*
X41638095Y-30923810D01*
X41638095Y-30780952D01*
X41685714Y-30590476D01*
X41733333Y-30495238D01*
X41828571Y-30400000D01*
X41971429Y-30352381D01*
X42066667Y-30352381D01*
X42209524Y-30400000D01*
X42257143Y-30447619D01*
X43209524Y-31352381D02*
X42638095Y-31352381D01*
X42923809Y-31352381D02*
X42923809Y-30352381D01*
X42828571Y-30495238D01*
X42733333Y-30590476D01*
X42638095Y-30638095D01*
X44114286Y-30352381D02*
X43638095Y-30352381D01*
X43590476Y-30828571D01*
X43638095Y-30780952D01*
X43733333Y-30733333D01*
X43971429Y-30733333D01*
X44066667Y-30780952D01*
X44114286Y-30828571D01*
X44161905Y-30923810D01*
X44161905Y-31161905D01*
X44114286Y-31257143D01*
X44066667Y-31304762D01*
X43971429Y-31352381D01*
X43733333Y-31352381D01*
X43638095Y-31304762D01*
X43590476Y-31257143D01*
X45261905Y-47902381D02*
X45261905Y-46902381D01*
X45500000Y-46902381D01*
X45642858Y-46950000D01*
X45738096Y-47045238D01*
X45785715Y-47140476D01*
X45833334Y-47330952D01*
X45833334Y-47473810D01*
X45785715Y-47664286D01*
X45738096Y-47759524D01*
X45642858Y-47854762D01*
X45500000Y-47902381D01*
X45261905Y-47902381D01*
X46785715Y-47902381D02*
X46214286Y-47902381D01*
X46500000Y-47902381D02*
X46500000Y-46902381D01*
X46404762Y-47045238D01*
X46309524Y-47140476D01*
X46214286Y-47188095D01*
X36161905Y-47902381D02*
X36161905Y-46902381D01*
X36400000Y-46902381D01*
X36542858Y-46950000D01*
X36638096Y-47045238D01*
X36685715Y-47140476D01*
X36733334Y-47330952D01*
X36733334Y-47473810D01*
X36685715Y-47664286D01*
X36638096Y-47759524D01*
X36542858Y-47854762D01*
X36400000Y-47902381D01*
X36161905Y-47902381D01*
X37114286Y-46997619D02*
X37161905Y-46950000D01*
X37257143Y-46902381D01*
X37495239Y-46902381D01*
X37590477Y-46950000D01*
X37638096Y-46997619D01*
X37685715Y-47092857D01*
X37685715Y-47188095D01*
X37638096Y-47330952D01*
X37066667Y-47902381D01*
X37685715Y-47902381D01*
X1711905Y-5152381D02*
X1711905Y-4152381D01*
X1950000Y-4152381D01*
X2092858Y-4200000D01*
X2188096Y-4295238D01*
X2235715Y-4390476D01*
X2283334Y-4580952D01*
X2283334Y-4723810D01*
X2235715Y-4914286D01*
X2188096Y-5009524D01*
X2092858Y-5104762D01*
X1950000Y-5152381D01*
X1711905Y-5152381D01*
X2616667Y-4152381D02*
X3235715Y-4152381D01*
X2902381Y-4533333D01*
X3045239Y-4533333D01*
X3140477Y-4580952D01*
X3188096Y-4628571D01*
X3235715Y-4723810D01*
X3235715Y-4961905D01*
X3188096Y-5057143D01*
X3140477Y-5104762D01*
X3045239Y-5152381D01*
X2759524Y-5152381D01*
X2664286Y-5104762D01*
X2616667Y-5057143D01*
X40911905Y-9952381D02*
X40911905Y-8952381D01*
X41150000Y-8952381D01*
X41292858Y-9000000D01*
X41388096Y-9095238D01*
X41435715Y-9190476D01*
X41483334Y-9380952D01*
X41483334Y-9523810D01*
X41435715Y-9714286D01*
X41388096Y-9809524D01*
X41292858Y-9904762D01*
X41150000Y-9952381D01*
X40911905Y-9952381D01*
X42340477Y-9285714D02*
X42340477Y-9952381D01*
X42102381Y-8904762D02*
X41864286Y-9619048D01*
X42483334Y-9619048D01*
X38211905Y-9952381D02*
X38211905Y-8952381D01*
X38450000Y-8952381D01*
X38592858Y-9000000D01*
X38688096Y-9095238D01*
X38735715Y-9190476D01*
X38783334Y-9380952D01*
X38783334Y-9523810D01*
X38735715Y-9714286D01*
X38688096Y-9809524D01*
X38592858Y-9904762D01*
X38450000Y-9952381D01*
X38211905Y-9952381D01*
X39688096Y-8952381D02*
X39211905Y-8952381D01*
X39164286Y-9428571D01*
X39211905Y-9380952D01*
X39307143Y-9333333D01*
X39545239Y-9333333D01*
X39640477Y-9380952D01*
X39688096Y-9428571D01*
X39735715Y-9523810D01*
X39735715Y-9761905D01*
X39688096Y-9857143D01*
X39640477Y-9904762D01*
X39545239Y-9952381D01*
X39307143Y-9952381D01*
X39211905Y-9904762D01*
X39164286Y-9857143D01*
X46511905Y-9952381D02*
X46511905Y-8952381D01*
X46750000Y-8952381D01*
X46892858Y-9000000D01*
X46988096Y-9095238D01*
X47035715Y-9190476D01*
X47083334Y-9380952D01*
X47083334Y-9523810D01*
X47035715Y-9714286D01*
X46988096Y-9809524D01*
X46892858Y-9904762D01*
X46750000Y-9952381D01*
X46511905Y-9952381D01*
X47940477Y-8952381D02*
X47750000Y-8952381D01*
X47654762Y-9000000D01*
X47607143Y-9047619D01*
X47511905Y-9190476D01*
X47464286Y-9380952D01*
X47464286Y-9761905D01*
X47511905Y-9857143D01*
X47559524Y-9904762D01*
X47654762Y-9952381D01*
X47845239Y-9952381D01*
X47940477Y-9904762D01*
X47988096Y-9857143D01*
X48035715Y-9761905D01*
X48035715Y-9523810D01*
X47988096Y-9428571D01*
X47940477Y-9380952D01*
X47845239Y-9333333D01*
X47654762Y-9333333D01*
X47559524Y-9380952D01*
X47511905Y-9428571D01*
X47464286Y-9523810D01*
X43611905Y-9952381D02*
X43611905Y-8952381D01*
X43850000Y-8952381D01*
X43992858Y-9000000D01*
X44088096Y-9095238D01*
X44135715Y-9190476D01*
X44183334Y-9380952D01*
X44183334Y-9523810D01*
X44135715Y-9714286D01*
X44088096Y-9809524D01*
X43992858Y-9904762D01*
X43850000Y-9952381D01*
X43611905Y-9952381D01*
X44516667Y-8952381D02*
X45183334Y-8952381D01*
X44754762Y-9952381D01*
X39211905Y-47902381D02*
X39211905Y-46902381D01*
X39450000Y-46902381D01*
X39592858Y-46950000D01*
X39688096Y-47045238D01*
X39735715Y-47140476D01*
X39783334Y-47330952D01*
X39783334Y-47473810D01*
X39735715Y-47664286D01*
X39688096Y-47759524D01*
X39592858Y-47854762D01*
X39450000Y-47902381D01*
X39211905Y-47902381D01*
X40354762Y-47330952D02*
X40259524Y-47283333D01*
X40211905Y-47235714D01*
X40164286Y-47140476D01*
X40164286Y-47092857D01*
X40211905Y-46997619D01*
X40259524Y-46950000D01*
X40354762Y-46902381D01*
X40545239Y-46902381D01*
X40640477Y-46950000D01*
X40688096Y-46997619D01*
X40735715Y-47092857D01*
X40735715Y-47140476D01*
X40688096Y-47235714D01*
X40640477Y-47283333D01*
X40545239Y-47330952D01*
X40354762Y-47330952D01*
X40259524Y-47378571D01*
X40211905Y-47426190D01*
X40164286Y-47521429D01*
X40164286Y-47711905D01*
X40211905Y-47807143D01*
X40259524Y-47854762D01*
X40354762Y-47902381D01*
X40545239Y-47902381D01*
X40640477Y-47854762D01*
X40688096Y-47807143D01*
X40735715Y-47711905D01*
X40735715Y-47521429D01*
X40688096Y-47426190D01*
X40640477Y-47378571D01*
X40545239Y-47330952D01*
X42211905Y-48002381D02*
X42211905Y-47002381D01*
X42450000Y-47002381D01*
X42592858Y-47050000D01*
X42688096Y-47145238D01*
X42735715Y-47240476D01*
X42783334Y-47430952D01*
X42783334Y-47573810D01*
X42735715Y-47764286D01*
X42688096Y-47859524D01*
X42592858Y-47954762D01*
X42450000Y-48002381D01*
X42211905Y-48002381D01*
X43259524Y-48002381D02*
X43450000Y-48002381D01*
X43545239Y-47954762D01*
X43592858Y-47907143D01*
X43688096Y-47764286D01*
X43735715Y-47573810D01*
X43735715Y-47192857D01*
X43688096Y-47097619D01*
X43640477Y-47050000D01*
X43545239Y-47002381D01*
X43354762Y-47002381D01*
X43259524Y-47050000D01*
X43211905Y-47097619D01*
X43164286Y-47192857D01*
X43164286Y-47430952D01*
X43211905Y-47526190D01*
X43259524Y-47573810D01*
X43354762Y-47621429D01*
X43545239Y-47621429D01*
X43640477Y-47573810D01*
X43688096Y-47526190D01*
X43735715Y-47430952D01*
X50916667Y-13452381D02*
X50916667Y-14166667D01*
X50869047Y-14309524D01*
X50773809Y-14404762D01*
X50630952Y-14452381D01*
X50535714Y-14452381D01*
X51392857Y-14452381D02*
X51392857Y-13452381D01*
X51773810Y-13452381D01*
X51869048Y-13500000D01*
X51916667Y-13547619D01*
X51964286Y-13642857D01*
X51964286Y-13785714D01*
X51916667Y-13880952D01*
X51869048Y-13928571D01*
X51773810Y-13976190D01*
X51392857Y-13976190D01*
X52916667Y-14452381D02*
X52345238Y-14452381D01*
X52630952Y-14452381D02*
X52630952Y-13452381D01*
X52535714Y-13595238D01*
X52440476Y-13690476D01*
X52345238Y-13738095D01*
X50916667Y-17052381D02*
X50916667Y-17766667D01*
X50869047Y-17909524D01*
X50773809Y-18004762D01*
X50630952Y-18052381D01*
X50535714Y-18052381D01*
X51392857Y-18052381D02*
X51392857Y-17052381D01*
X51773810Y-17052381D01*
X51869048Y-17100000D01*
X51916667Y-17147619D01*
X51964286Y-17242857D01*
X51964286Y-17385714D01*
X51916667Y-17480952D01*
X51869048Y-17528571D01*
X51773810Y-17576190D01*
X51392857Y-17576190D01*
X52345238Y-17147619D02*
X52392857Y-17100000D01*
X52488095Y-17052381D01*
X52726191Y-17052381D01*
X52821429Y-17100000D01*
X52869048Y-17147619D01*
X52916667Y-17242857D01*
X52916667Y-17338095D01*
X52869048Y-17480952D01*
X52297619Y-18052381D01*
X52916667Y-18052381D01*
X48611905Y-30202381D02*
X48611905Y-29202381D01*
X48992858Y-29202381D01*
X49088096Y-29250000D01*
X49135715Y-29297619D01*
X49183334Y-29392857D01*
X49183334Y-29535714D01*
X49135715Y-29630952D01*
X49088096Y-29678571D01*
X48992858Y-29726190D01*
X48611905Y-29726190D01*
X49564286Y-29297619D02*
X49611905Y-29250000D01*
X49707143Y-29202381D01*
X49945239Y-29202381D01*
X50040477Y-29250000D01*
X50088096Y-29297619D01*
X50135715Y-29392857D01*
X50135715Y-29488095D01*
X50088096Y-29630952D01*
X49516667Y-30202381D01*
X50135715Y-30202381D01*
X4558095Y-45332381D02*
X4558095Y-46141905D01*
X4605714Y-46237143D01*
X4653333Y-46284762D01*
X4748571Y-46332381D01*
X4939048Y-46332381D01*
X5034286Y-46284762D01*
X5081905Y-46237143D01*
X5129524Y-46141905D01*
X5129524Y-45332381D01*
X5558095Y-45427619D02*
X5605714Y-45380000D01*
X5700952Y-45332381D01*
X5939048Y-45332381D01*
X6034286Y-45380000D01*
X6081905Y-45427619D01*
X6129524Y-45522857D01*
X6129524Y-45618095D01*
X6081905Y-45760952D01*
X5510476Y-46332381D01*
X6129524Y-46332381D01*
X53561905Y-4732381D02*
X53561905Y-3732381D01*
X53942858Y-3732381D01*
X54038096Y-3780000D01*
X54085715Y-3827619D01*
X54133334Y-3922857D01*
X54133334Y-4065714D01*
X54085715Y-4160952D01*
X54038096Y-4208571D01*
X53942858Y-4256190D01*
X53561905Y-4256190D01*
X54990477Y-4065714D02*
X54990477Y-4732381D01*
X54752381Y-3684762D02*
X54514286Y-4399048D01*
X55133334Y-4399048D01*
X2871905Y-30912381D02*
X2871905Y-29912381D01*
X3252858Y-29912381D01*
X3348096Y-29960000D01*
X3395715Y-30007619D01*
X3443334Y-30102857D01*
X3443334Y-30245714D01*
X3395715Y-30340952D01*
X3348096Y-30388571D01*
X3252858Y-30436190D01*
X2871905Y-30436190D01*
X4348096Y-29912381D02*
X3871905Y-29912381D01*
X3824286Y-30388571D01*
X3871905Y-30340952D01*
X3967143Y-30293333D01*
X4205239Y-30293333D01*
X4300477Y-30340952D01*
X4348096Y-30388571D01*
X4395715Y-30483810D01*
X4395715Y-30721905D01*
X4348096Y-30817143D01*
X4300477Y-30864762D01*
X4205239Y-30912381D01*
X3967143Y-30912381D01*
X3871905Y-30864762D01*
X3824286Y-30817143D01*
X53421905Y-31192381D02*
X53421905Y-30192381D01*
X53802858Y-30192381D01*
X53898096Y-30240000D01*
X53945715Y-30287619D01*
X53993334Y-30382857D01*
X53993334Y-30525714D01*
X53945715Y-30620952D01*
X53898096Y-30668571D01*
X53802858Y-30716190D01*
X53421905Y-30716190D01*
X54850477Y-30192381D02*
X54660000Y-30192381D01*
X54564762Y-30240000D01*
X54517143Y-30287619D01*
X54421905Y-30430476D01*
X54374286Y-30620952D01*
X54374286Y-31001905D01*
X54421905Y-31097143D01*
X54469524Y-31144762D01*
X54564762Y-31192381D01*
X54755239Y-31192381D01*
X54850477Y-31144762D01*
X54898096Y-31097143D01*
X54945715Y-31001905D01*
X54945715Y-30763810D01*
X54898096Y-30668571D01*
X54850477Y-30620952D01*
X54755239Y-30573333D01*
X54564762Y-30573333D01*
X54469524Y-30620952D01*
X54421905Y-30668571D01*
X54374286Y-30763810D01*
X27891905Y-45522381D02*
X27891905Y-44522381D01*
X28272858Y-44522381D01*
X28368096Y-44570000D01*
X28415715Y-44617619D01*
X28463334Y-44712857D01*
X28463334Y-44855714D01*
X28415715Y-44950952D01*
X28368096Y-44998571D01*
X28272858Y-45046190D01*
X27891905Y-45046190D01*
X29415715Y-45522381D02*
X28844286Y-45522381D01*
X29130000Y-45522381D02*
X29130000Y-44522381D01*
X29034762Y-44665238D01*
X28939524Y-44760476D01*
X28844286Y-44808095D01*
X18147143Y-32502381D02*
X17813809Y-32026190D01*
X17575714Y-32502381D02*
X17575714Y-31502381D01*
X17956667Y-31502381D01*
X18051905Y-31550000D01*
X18099524Y-31597619D01*
X18147143Y-31692857D01*
X18147143Y-31835714D01*
X18099524Y-31930952D01*
X18051905Y-31978571D01*
X17956667Y-32026190D01*
X17575714Y-32026190D01*
X19099524Y-32502381D02*
X18528095Y-32502381D01*
X18813809Y-32502381D02*
X18813809Y-31502381D01*
X18718571Y-31645238D01*
X18623333Y-31740476D01*
X18528095Y-31788095D01*
X19718571Y-31502381D02*
X19813810Y-31502381D01*
X19909048Y-31550000D01*
X19956667Y-31597619D01*
X20004286Y-31692857D01*
X20051905Y-31883333D01*
X20051905Y-32121429D01*
X20004286Y-32311905D01*
X19956667Y-32407143D01*
X19909048Y-32454762D01*
X19813810Y-32502381D01*
X19718571Y-32502381D01*
X19623333Y-32454762D01*
X19575714Y-32407143D01*
X19528095Y-32311905D01*
X19480476Y-32121429D01*
X19480476Y-31883333D01*
X19528095Y-31692857D01*
X19575714Y-31597619D01*
X19623333Y-31550000D01*
X19718571Y-31502381D01*
X19827143Y-38202381D02*
X19493809Y-37726190D01*
X19255714Y-38202381D02*
X19255714Y-37202381D01*
X19636667Y-37202381D01*
X19731905Y-37250000D01*
X19779524Y-37297619D01*
X19827143Y-37392857D01*
X19827143Y-37535714D01*
X19779524Y-37630952D01*
X19731905Y-37678571D01*
X19636667Y-37726190D01*
X19255714Y-37726190D01*
X20779524Y-38202381D02*
X20208095Y-38202381D01*
X20493809Y-38202381D02*
X20493809Y-37202381D01*
X20398571Y-37345238D01*
X20303333Y-37440476D01*
X20208095Y-37488095D01*
X21731905Y-38202381D02*
X21160476Y-38202381D01*
X21446190Y-38202381D02*
X21446190Y-37202381D01*
X21350952Y-37345238D01*
X21255714Y-37440476D01*
X21160476Y-37488095D01*
X3867143Y-10632381D02*
X3533809Y-10156190D01*
X3295714Y-10632381D02*
X3295714Y-9632381D01*
X3676667Y-9632381D01*
X3771905Y-9680000D01*
X3819524Y-9727619D01*
X3867143Y-9822857D01*
X3867143Y-9965714D01*
X3819524Y-10060952D01*
X3771905Y-10108571D01*
X3676667Y-10156190D01*
X3295714Y-10156190D01*
X4819524Y-10632381D02*
X4248095Y-10632381D01*
X4533809Y-10632381D02*
X4533809Y-9632381D01*
X4438571Y-9775238D01*
X4343333Y-9870476D01*
X4248095Y-9918095D01*
X5200476Y-9727619D02*
X5248095Y-9680000D01*
X5343333Y-9632381D01*
X5581429Y-9632381D01*
X5676667Y-9680000D01*
X5724286Y-9727619D01*
X5771905Y-9822857D01*
X5771905Y-9918095D01*
X5724286Y-10060952D01*
X5152857Y-10632381D01*
X5771905Y-10632381D01*
X39916667Y-39884762D02*
X40059524Y-39932381D01*
X40297620Y-39932381D01*
X40392858Y-39884762D01*
X40440477Y-39837143D01*
X40488096Y-39741905D01*
X40488096Y-39646667D01*
X40440477Y-39551429D01*
X40392858Y-39503810D01*
X40297620Y-39456190D01*
X40107143Y-39408571D01*
X40011905Y-39360952D01*
X39964286Y-39313333D01*
X39916667Y-39218095D01*
X39916667Y-39122857D01*
X39964286Y-39027619D01*
X40011905Y-38980000D01*
X40107143Y-38932381D01*
X40345239Y-38932381D01*
X40488096Y-38980000D01*
X40821429Y-38932381D02*
X41059524Y-39932381D01*
X41250001Y-39218095D01*
X41440477Y-39932381D01*
X41678572Y-38932381D01*
X42583334Y-39932381D02*
X42011905Y-39932381D01*
X42297619Y-39932381D02*
X42297619Y-38932381D01*
X42202381Y-39075238D01*
X42107143Y-39170476D01*
X42011905Y-39218095D01*
M02*
