G04 #@! TF.FileFunction,Soldermask,Bot*
%FSLAX46Y46*%
G04 Gerber Fmt 4.6, Leading zero omitted, Abs format (unit mm)*
G04 Created by KiCad (PCBNEW 4.0.1-stable) date 12-Feb-16 11:10:28 AM*
%MOMM*%
G01*
G04 APERTURE LIST*
%ADD10C,0.100000*%
%ADD11C,3.150000*%
%ADD12R,2.127200X2.127200*%
%ADD13C,2.127200*%
%ADD14R,1.650000X1.400000*%
%ADD15R,1.400000X1.650000*%
%ADD16R,2.127200X2.432000*%
%ADD17O,2.127200X2.432000*%
%ADD18C,1.391000*%
%ADD19C,2.775000*%
%ADD20R,1.200100X1.200100*%
%ADD21R,1.900000X1.700000*%
%ADD22R,0.650000X1.700000*%
%ADD23R,1.700000X0.650000*%
%ADD24R,4.057600X2.432000*%
%ADD25R,1.416000X2.432000*%
%ADD26O,2.127200X2.127200*%
%ADD27R,1.150000X1.200000*%
%ADD28C,2.400000*%
%ADD29C,3.400000*%
%ADD30R,1.300000X1.600000*%
%ADD31R,5.900000X2.400000*%
%ADD32R,1.600000X2.200000*%
G04 APERTURE END LIST*
D10*
D11*
X10000Y0D03*
X58010000Y0D03*
X10000Y-49000000D03*
X58010000Y-49000000D03*
D12*
X4510000Y-1500000D03*
D13*
X4510000Y1040000D03*
X7050000Y-1500000D03*
X7050000Y1040000D03*
X9590000Y-1500000D03*
X9590000Y1040000D03*
X12130000Y-1500000D03*
X12130000Y1040000D03*
X14670000Y-1500000D03*
X14670000Y1040000D03*
X17210000Y-1500000D03*
X17210000Y1040000D03*
X19750000Y-1500000D03*
X19750000Y1040000D03*
X22290000Y-1500000D03*
X22290000Y1040000D03*
X24830000Y-1500000D03*
X24830000Y1040000D03*
X27370000Y-1500000D03*
X27370000Y1040000D03*
X29910000Y-1500000D03*
X29910000Y1040000D03*
X32450000Y-1500000D03*
X32450000Y1040000D03*
X34990000Y-1500000D03*
X34990000Y1040000D03*
X37530000Y-1500000D03*
X37530000Y1040000D03*
X40070000Y-1500000D03*
X40070000Y1040000D03*
X42610000Y-1500000D03*
X42610000Y1040000D03*
X45150000Y-1500000D03*
X45150000Y1040000D03*
X47690000Y-1500000D03*
X47690000Y1040000D03*
X50230000Y-1500000D03*
X50230000Y1040000D03*
X52770000Y-1500000D03*
X52770000Y1040000D03*
D14*
X33710000Y-45850000D03*
X33710000Y-43850000D03*
X11694000Y-36814000D03*
X11694000Y-34814000D03*
X16266000Y-36814000D03*
X16266000Y-34814000D03*
X29750000Y-30850000D03*
X29750000Y-32850000D03*
D15*
X15790000Y-31240000D03*
X13790000Y-31240000D03*
X32030000Y-36576000D03*
X34030000Y-36576000D03*
D16*
X48332000Y-13806000D03*
D17*
X45792000Y-13806000D03*
X43252000Y-13806000D03*
D16*
X48332000Y-17616000D03*
D17*
X45792000Y-17616000D03*
X43252000Y-17616000D03*
D18*
X49250000Y-24700000D03*
X54330000Y-23684000D03*
X54330000Y-25716000D03*
D19*
X49250000Y-22160000D03*
X52425000Y-22160000D03*
X49250000Y-27240000D03*
X52425000Y-27240000D03*
D20*
X33350760Y-38750000D03*
X33350760Y-40650000D03*
X31351780Y-39700000D03*
X27949240Y-40650000D03*
X27949240Y-38750000D03*
X29948220Y-39700000D03*
D21*
X29730000Y-36190000D03*
X27030000Y-36190000D03*
X18980000Y-40894000D03*
X21680000Y-40894000D03*
X45820000Y-10910000D03*
X43120000Y-10910000D03*
X45760000Y-20550000D03*
X43060000Y-20550000D03*
X22110000Y-24570000D03*
X19410000Y-24570000D03*
X11800000Y-17500000D03*
X9100000Y-17500000D03*
X11800000Y-20700000D03*
X9100000Y-20700000D03*
D12*
X7630000Y-45720000D03*
D11*
X8011000Y-40005000D03*
X24521000Y-11938000D03*
D12*
X24775000Y-45720000D03*
X7630000Y-6223000D03*
X24775000Y-6223000D03*
D22*
X30665000Y-24105000D03*
X30165000Y-24105000D03*
X29665000Y-24105000D03*
X29165000Y-24105000D03*
X28665000Y-24105000D03*
X28165000Y-24105000D03*
X27665000Y-24105000D03*
X27165000Y-24105000D03*
X26665000Y-24105000D03*
X26165000Y-24105000D03*
X25665000Y-24105000D03*
X25165000Y-24105000D03*
D23*
X23565000Y-22505000D03*
X23565000Y-22005000D03*
X23565000Y-21505000D03*
X23565000Y-21005000D03*
X23565000Y-20505000D03*
X23565000Y-20005000D03*
X23565000Y-19505000D03*
X23565000Y-19005000D03*
X23565000Y-18505000D03*
X23565000Y-18005000D03*
X23565000Y-17505000D03*
X23565000Y-17005000D03*
D22*
X25165000Y-15405000D03*
X25665000Y-15405000D03*
X26165000Y-15405000D03*
X26665000Y-15405000D03*
X27165000Y-15405000D03*
X27665000Y-15405000D03*
X28165000Y-15405000D03*
X28665000Y-15405000D03*
X29165000Y-15405000D03*
X29665000Y-15405000D03*
X30165000Y-15405000D03*
X30665000Y-15405000D03*
D23*
X32265000Y-17005000D03*
X32265000Y-17505000D03*
X32265000Y-18005000D03*
X32265000Y-18505000D03*
X32265000Y-19005000D03*
X32265000Y-19505000D03*
X32265000Y-20005000D03*
X32265000Y-20505000D03*
X32265000Y-21005000D03*
X32265000Y-21505000D03*
X32265000Y-22005000D03*
X32265000Y-22505000D03*
D21*
X18980000Y-43180000D03*
X21680000Y-43180000D03*
X18980000Y-45720000D03*
X21680000Y-45720000D03*
D24*
X13980000Y-39243000D03*
D25*
X13980000Y-45847000D03*
X11694000Y-45847000D03*
X16266000Y-45847000D03*
D12*
X55140000Y-6810000D03*
D26*
X57680000Y-6810000D03*
X55140000Y-9350000D03*
X57680000Y-9350000D03*
X55140000Y-11890000D03*
X57680000Y-11890000D03*
X55140000Y-14430000D03*
X57680000Y-14430000D03*
X55140000Y-16970000D03*
X57680000Y-16970000D03*
D12*
X3650000Y-27890000D03*
D26*
X1110000Y-27890000D03*
X3650000Y-25350000D03*
X1110000Y-25350000D03*
X3650000Y-22810000D03*
X1110000Y-22810000D03*
X3650000Y-20270000D03*
X1110000Y-20270000D03*
X3650000Y-17730000D03*
X1110000Y-17730000D03*
D12*
X55100000Y-33290000D03*
D26*
X57640000Y-33290000D03*
X55100000Y-35830000D03*
X57640000Y-35830000D03*
X55100000Y-38370000D03*
X57640000Y-38370000D03*
X55100000Y-40910000D03*
X57640000Y-40910000D03*
X55100000Y-43450000D03*
X57640000Y-43450000D03*
D27*
X34160000Y-29920000D03*
X34160000Y-31420000D03*
X31690000Y-30010000D03*
X31690000Y-31510000D03*
D28*
X31140000Y-42870000D03*
X31140000Y-45870000D03*
D29*
X31140000Y-50190000D03*
D30*
X47520000Y-45800000D03*
X47520000Y-43600000D03*
X38360000Y-45800000D03*
X38360000Y-43600000D03*
X41650000Y-5600000D03*
X41650000Y-7800000D03*
X38950000Y-5600000D03*
X38950000Y-7800000D03*
X47150000Y-5600000D03*
X47150000Y-7800000D03*
X44350000Y-5600000D03*
X44350000Y-7800000D03*
X41420000Y-45800000D03*
X41420000Y-43600000D03*
X44460000Y-43610000D03*
X44460000Y-45810000D03*
D28*
X37970000Y-33660000D03*
X44470000Y-33660000D03*
X37970000Y-38160000D03*
X44470000Y-38160000D03*
D31*
X27270000Y-28800000D03*
X17770000Y-28800000D03*
D32*
X34110000Y-27970000D03*
X31410000Y-27970000D03*
M02*
