G04 #@! TF.FileFunction,Copper,L1,Top,Signal*
%FSLAX45Y45*%
G04 Gerber Fmt 4.5, Leading zero omitted, Abs format (unit mm)*
G04 Created by KiCad (PCBNEW 4.0.1-stable) date 12-Feb-16 12:46:57 PM*
%MOMM*%
G01*
G04 APERTURE LIST*
%ADD10C,0.100000*%
%ADD11R,1.550000X0.300000*%
%ADD12R,0.800000X0.750000*%
%ADD13R,1.300000X0.700000*%
%ADD14R,0.750000X0.800000*%
%ADD15R,2.032000X1.727200*%
%ADD16O,2.032000X1.727200*%
%ADD17R,3.599180X1.600200*%
%ADD18R,0.500000X0.900000*%
%ADD19R,1.000000X1.250000*%
%ADD20R,1.200000X1.200000*%
%ADD21R,1.500000X1.600000*%
%ADD22R,1.700000X0.900000*%
%ADD23R,1.727200X1.727200*%
%ADD24O,1.727200X1.727200*%
%ADD25C,0.600000*%
%ADD26C,0.500000*%
%ADD27C,0.250000*%
%ADD28C,0.300000*%
%ADD29C,0.254000*%
G04 APERTURE END LIST*
D10*
D11*
X2240500Y-279500D03*
X1580500Y-279500D03*
X2240500Y-344500D03*
X1580500Y-344500D03*
X2240500Y-409500D03*
X1580500Y-409500D03*
X2240500Y-474500D03*
X1580500Y-474500D03*
X2240500Y-539500D03*
X1580500Y-539500D03*
X2240500Y-604500D03*
X1580500Y-604500D03*
X2240500Y-669500D03*
X1580500Y-669500D03*
X2240500Y-734500D03*
X1580500Y-734500D03*
X2240500Y-799500D03*
X1580500Y-799500D03*
X2240500Y-864500D03*
X1580500Y-864500D03*
X2240500Y-929500D03*
X1580500Y-929500D03*
X2240500Y-994500D03*
X1580500Y-994500D03*
X2240500Y-1059500D03*
X1580500Y-1059500D03*
X2240500Y-1124500D03*
X1580500Y-1124500D03*
D12*
X1941000Y-1663000D03*
X2091000Y-1663000D03*
D13*
X2278000Y-1596000D03*
X2278000Y-1406000D03*
D12*
X1942000Y-1504000D03*
X2092000Y-1504000D03*
X1942000Y-1345000D03*
X2092000Y-1345000D03*
X1430120Y-141660D03*
X1580120Y-141660D03*
D14*
X641520Y-135240D03*
X641520Y-285240D03*
X821860Y-135240D03*
X821860Y-285240D03*
D13*
X1228260Y-323020D03*
X1228260Y-133020D03*
D14*
X999660Y-285240D03*
X999660Y-135240D03*
D15*
X318940Y-1104320D03*
D16*
X318940Y-850320D03*
X318940Y-596320D03*
X318940Y-342320D03*
D17*
X352976Y-1660580D03*
X903140Y-1660580D03*
D18*
X1430020Y-1273000D03*
X1580020Y-1273000D03*
D19*
X2147000Y-1862000D03*
X1947000Y-1862000D03*
D20*
X1674000Y-1786000D03*
X1674000Y-1586000D03*
D21*
X1349000Y-1686000D03*
D22*
X695020Y-658000D03*
X695020Y-948000D03*
X1120020Y-858000D03*
X1120020Y-1148000D03*
D23*
X3114000Y-1557000D03*
D24*
X2860000Y-1557000D03*
X3114000Y-1303000D03*
X2860000Y-1303000D03*
X3114000Y-1049000D03*
X2860000Y-1049000D03*
X3114000Y-795000D03*
X2860000Y-795000D03*
X3114000Y-541000D03*
X2860000Y-541000D03*
D25*
X1643500Y-1433500D03*
X3108000Y-283000D03*
X2240000Y-220000D03*
X1045020Y-1328200D03*
X875000Y-910081D03*
X821860Y-398200D03*
D26*
X3110020Y-1560980D02*
X3110020Y-1969980D01*
X3040000Y-2040000D02*
X3110020Y-1969980D01*
X450000Y-2040000D02*
X3040000Y-2040000D01*
X352976Y-1942976D02*
X450000Y-2040000D01*
X352976Y-1942976D02*
X352976Y-1660580D01*
X3110020Y-1560980D02*
X3114000Y-1557000D01*
X3114000Y-1557000D02*
X3114000Y-1303000D01*
X1429058Y-930481D02*
X1579519Y-930481D01*
X1579519Y-930481D02*
X1580500Y-929500D01*
X400020Y-1323776D02*
X113976Y-1323776D01*
X400020Y-1323776D02*
X726224Y-1323776D01*
X352976Y-1323776D02*
X400020Y-1323776D01*
X726224Y-1323776D02*
X1004999Y-1045001D01*
X1004999Y-1045001D02*
X1279959Y-1045001D01*
X1279959Y-1045001D02*
X1394479Y-930481D01*
X1394479Y-930481D02*
X1429058Y-930481D01*
X1429058Y-930481D02*
X1430039Y-930481D01*
X113200Y-1323000D02*
X113200Y-1623200D01*
X150580Y-1660580D02*
X352976Y-1660580D01*
X113200Y-1623200D02*
X150580Y-1660580D01*
X542460Y-135240D02*
X519600Y-135240D01*
X519600Y-135240D02*
X519600Y-355020D01*
X1162120Y-474500D02*
X1162220Y-474400D01*
X519600Y-355020D02*
X639080Y-474500D01*
X639080Y-474500D02*
X1162120Y-474500D01*
X1162220Y-474400D02*
X1580400Y-474400D01*
X1580400Y-474400D02*
X1580500Y-474500D01*
X113976Y-1323776D02*
X113200Y-1323000D01*
X113200Y-1289740D02*
X113200Y-1323000D01*
X641520Y-135240D02*
X542460Y-135240D01*
X113200Y-154360D02*
X113200Y-1289740D01*
X132320Y-135240D02*
X113200Y-154360D01*
X542460Y-135240D02*
X132320Y-135240D01*
X452925Y-1660580D02*
X352976Y-1660580D01*
X821860Y-135240D02*
X999660Y-135240D01*
X641520Y-135240D02*
X821860Y-135240D01*
X1226040Y-135240D02*
X1228260Y-133020D01*
X999660Y-135240D02*
X1226040Y-135240D01*
X1947000Y-1862000D02*
X1834000Y-1862000D01*
X1521000Y-1739000D02*
X1674000Y-1586000D01*
X1521000Y-1828000D02*
X1521000Y-1739000D01*
X1610000Y-1917000D02*
X1521000Y-1828000D01*
X1779000Y-1917000D02*
X1610000Y-1917000D01*
X1834000Y-1862000D02*
X1779000Y-1917000D01*
X1674000Y-1586000D02*
X1674000Y-1464000D01*
X1580020Y-1370020D02*
X1580020Y-1273000D01*
X1674000Y-1464000D02*
X1643500Y-1433500D01*
X1643500Y-1433500D02*
X1580020Y-1370020D01*
X3114000Y-795000D02*
X3114000Y-541000D01*
X3114000Y-541000D02*
X3108000Y-535000D01*
X3108000Y-535000D02*
X3108000Y-283000D01*
X2240500Y-279500D02*
X2240500Y-220500D01*
X2240500Y-220500D02*
X2240000Y-220000D01*
X1580020Y-1273000D02*
X1580020Y-1140020D01*
X1580500Y-1272520D02*
X1580020Y-1273000D01*
X903140Y-1470080D02*
X1045020Y-1328200D01*
X1045020Y-1328200D02*
X1120020Y-1253200D01*
X695020Y-948000D02*
X837081Y-948000D01*
X837081Y-948000D02*
X875000Y-910081D01*
X1120020Y-1253200D02*
X1120020Y-1148000D01*
X903140Y-1660580D02*
X903140Y-1470080D01*
X821860Y-285240D02*
X821860Y-398200D01*
X641520Y-285240D02*
X821860Y-285240D01*
D27*
X1580500Y-344500D02*
X1478000Y-344500D01*
X1478000Y-344500D02*
X1430120Y-296620D01*
X1430120Y-296620D02*
X1430120Y-204160D01*
X1430120Y-204160D02*
X1430120Y-141660D01*
X1580500Y-279500D02*
X1580500Y-142040D01*
X1580500Y-142040D02*
X1580120Y-141660D01*
X1123020Y-323020D02*
X1085240Y-285240D01*
X1085240Y-285240D02*
X999660Y-285240D01*
X1228260Y-323020D02*
X1123020Y-323020D01*
X1580500Y-409500D02*
X1487340Y-409500D01*
X1487340Y-409500D02*
X1344940Y-409500D01*
X1344740Y-409500D02*
X1487340Y-409500D01*
X1258260Y-323020D02*
X1344740Y-409500D01*
X1228260Y-323020D02*
X1258260Y-323020D01*
X1941000Y-1663000D02*
X1932000Y-1663000D01*
X1932000Y-1663000D02*
X1867000Y-1598000D01*
X2106500Y-409500D02*
X2240500Y-409500D01*
X1867000Y-649000D02*
X2106500Y-409500D01*
X1867000Y-1598000D02*
X1867000Y-649000D01*
X1941000Y-1663000D02*
X1938000Y-1663000D01*
X1942000Y-1345000D02*
X1942000Y-662000D01*
X2129500Y-474500D02*
X2240500Y-474500D01*
X1942000Y-662000D02*
X2129500Y-474500D01*
X1942000Y-1504000D02*
X1948000Y-1504000D01*
X1948000Y-1504000D02*
X2015000Y-1437000D01*
X2015000Y-1437000D02*
X2015000Y-672000D01*
X2015000Y-672000D02*
X2147500Y-539500D01*
X2147500Y-539500D02*
X2240500Y-539500D01*
X1941000Y-1500000D02*
X1941000Y-1495000D01*
X2719500Y-669500D02*
X2731500Y-669500D01*
X2731500Y-669500D02*
X2860000Y-541000D01*
X2240500Y-669500D02*
X2719500Y-669500D01*
X2240500Y-799500D02*
X2855500Y-799500D01*
X2855500Y-799500D02*
X2860000Y-795000D01*
X2240520Y-799520D02*
X2240500Y-799500D01*
X2399200Y-1033200D02*
X2563200Y-1033200D01*
X2667000Y-1364000D02*
X2860000Y-1557000D01*
X2667000Y-1137000D02*
X2667000Y-1364000D01*
X2563200Y-1033200D02*
X2667000Y-1137000D01*
X2372900Y-1059500D02*
X2399200Y-1033200D01*
X2360500Y-994500D02*
X2399200Y-1033200D01*
X2240500Y-1059500D02*
X2372900Y-1059500D01*
X2240500Y-994500D02*
X2360500Y-994500D01*
D26*
X318940Y-1104320D02*
X795680Y-1104320D01*
X795680Y-1104320D02*
X925000Y-975000D01*
X925000Y-975000D02*
X1250964Y-975000D01*
X1250964Y-975000D02*
X1365484Y-860480D01*
X1365484Y-860480D02*
X1425000Y-860480D01*
X1362880Y-860480D02*
X1436540Y-860480D01*
D28*
X1580500Y-864500D02*
X1440560Y-864500D01*
X1440560Y-864500D02*
X1436540Y-860480D01*
D26*
X318940Y-850320D02*
X334180Y-850320D01*
X882756Y-835080D02*
X334180Y-835080D01*
X334180Y-835080D02*
X318940Y-850320D01*
X1434000Y-739981D02*
X977855Y-739981D01*
D28*
X1580500Y-734500D02*
X1439481Y-734500D01*
X1439481Y-734500D02*
X1434000Y-739981D01*
D26*
X977855Y-739981D02*
X882756Y-835080D01*
X848681Y-765079D02*
X502939Y-765079D01*
X502939Y-765079D02*
X334180Y-596320D01*
X334180Y-596320D02*
X318940Y-596320D01*
D28*
X1473000Y-669500D02*
X1472520Y-669980D01*
X1580500Y-669500D02*
X1473000Y-669500D01*
X1472520Y-669980D02*
X1434000Y-669980D01*
D26*
X1434000Y-669980D02*
X943780Y-669980D01*
X943780Y-669980D02*
X848681Y-765079D01*
D28*
X1410961Y-539500D02*
X1406060Y-544401D01*
D26*
X1406060Y-544401D02*
X1434000Y-544401D01*
X1333519Y-544401D02*
X1406060Y-544401D01*
X1333419Y-544501D02*
X1333519Y-544401D01*
X589765Y-544501D02*
X1333419Y-544501D01*
X387584Y-342320D02*
X589765Y-544501D01*
X318940Y-342320D02*
X387584Y-342320D01*
D27*
X334180Y-342320D02*
X318940Y-342320D01*
D28*
X1580500Y-539500D02*
X1410961Y-539500D01*
D27*
X1580500Y-604500D02*
X903140Y-604500D01*
X903140Y-604500D02*
X849640Y-658000D01*
X849640Y-658000D02*
X695020Y-658000D01*
X1580500Y-799500D02*
X1342541Y-799500D01*
X1342541Y-799500D02*
X1284041Y-858000D01*
X1284041Y-858000D02*
X1120020Y-858000D01*
X2240500Y-929500D02*
X2523140Y-929500D01*
X2523140Y-929500D02*
X2533320Y-939680D01*
X2278000Y-1406000D02*
X2278000Y-1341000D01*
X2122500Y-929500D02*
X2240500Y-929500D01*
X2099000Y-953000D02*
X2122500Y-929500D01*
X2099000Y-1162000D02*
X2099000Y-953000D01*
X2278000Y-1341000D02*
X2099000Y-1162000D01*
X2860000Y-1303000D02*
X2860000Y-1266360D01*
X2860000Y-1266360D02*
X2533320Y-939680D01*
X2533320Y-939680D02*
X2531640Y-938000D01*
X2240020Y-1124980D02*
X2240500Y-1124500D01*
X2245020Y-1129020D02*
X2240500Y-1124500D01*
X1349000Y-1686000D02*
X1349000Y-1476000D01*
X1430020Y-1394980D02*
X1430020Y-1273000D01*
X1349000Y-1476000D02*
X1430020Y-1394980D01*
X1580500Y-994500D02*
X1478000Y-994500D01*
X1478000Y-994500D02*
X1430020Y-1042480D01*
X1430020Y-1042480D02*
X1430020Y-1107480D01*
X1580500Y-1059500D02*
X1478000Y-1059500D01*
X1478000Y-1059500D02*
X1430020Y-1107480D01*
X1430020Y-1107480D02*
X1430020Y-1203000D01*
X1430020Y-1203000D02*
X1430020Y-1273000D01*
X1359000Y-1633840D02*
X1408600Y-1683440D01*
X2856020Y-1063000D02*
X2853000Y-1063000D01*
D29*
G36*
X3002300Y-485522D02*
X2996953Y-493524D01*
X2987509Y-541000D01*
X2996953Y-588476D01*
X3002300Y-596478D01*
X3002300Y-739522D01*
X2996953Y-747524D01*
X2987509Y-795000D01*
X2996953Y-842476D01*
X3002300Y-850478D01*
X3002300Y-993522D01*
X2996953Y-1001524D01*
X2987509Y-1049000D01*
X2996953Y-1096476D01*
X3002300Y-1104478D01*
X3002300Y-1247522D01*
X2996953Y-1255524D01*
X2987509Y-1303000D01*
X2996953Y-1350476D01*
X3002300Y-1358478D01*
X3002300Y-1442146D01*
X3000838Y-1443087D01*
X2992230Y-1455685D01*
X2989201Y-1470640D01*
X2989201Y-1643360D01*
X2991830Y-1657331D01*
X3000087Y-1670162D01*
X3002300Y-1671674D01*
X3002300Y-1977255D01*
X1805815Y-1973042D01*
X1823336Y-1961336D01*
X1858816Y-1925855D01*
X1861190Y-1938471D01*
X1869447Y-1951302D01*
X1882045Y-1959910D01*
X1897000Y-1962938D01*
X1997000Y-1962938D01*
X2010971Y-1960310D01*
X2023802Y-1952053D01*
X2032410Y-1939455D01*
X2035438Y-1924500D01*
X2035438Y-1872475D01*
X2064300Y-1872475D01*
X2064300Y-1931004D01*
X2069278Y-1943023D01*
X2078477Y-1952222D01*
X2090496Y-1957200D01*
X2136525Y-1957200D01*
X2144700Y-1949025D01*
X2144700Y-1864300D01*
X2149300Y-1864300D01*
X2149300Y-1949025D01*
X2157475Y-1957200D01*
X2203504Y-1957200D01*
X2215523Y-1952222D01*
X2224722Y-1943023D01*
X2229700Y-1931004D01*
X2229700Y-1872475D01*
X2221525Y-1864300D01*
X2149300Y-1864300D01*
X2144700Y-1864300D01*
X2072475Y-1864300D01*
X2064300Y-1872475D01*
X2035438Y-1872475D01*
X2035438Y-1799500D01*
X2034215Y-1792995D01*
X2064300Y-1792995D01*
X2064300Y-1851525D01*
X2072475Y-1859700D01*
X2144700Y-1859700D01*
X2144700Y-1774975D01*
X2149300Y-1774975D01*
X2149300Y-1859700D01*
X2221525Y-1859700D01*
X2229700Y-1851525D01*
X2229700Y-1792995D01*
X2224722Y-1780977D01*
X2215523Y-1771778D01*
X2203504Y-1766800D01*
X2157475Y-1766800D01*
X2149300Y-1774975D01*
X2144700Y-1774975D01*
X2136525Y-1766800D01*
X2090496Y-1766800D01*
X2078477Y-1771778D01*
X2069278Y-1780977D01*
X2064300Y-1792995D01*
X2034215Y-1792995D01*
X2032810Y-1785529D01*
X2024553Y-1772698D01*
X2011955Y-1764090D01*
X1997000Y-1761061D01*
X1897000Y-1761061D01*
X1883029Y-1763690D01*
X1870198Y-1771947D01*
X1861590Y-1784545D01*
X1858602Y-1799300D01*
X1834000Y-1799300D01*
X1810006Y-1804073D01*
X1789664Y-1817664D01*
X1766700Y-1840629D01*
X1766700Y-1796475D01*
X1758525Y-1788300D01*
X1676300Y-1788300D01*
X1676300Y-1790300D01*
X1671700Y-1790300D01*
X1671700Y-1788300D01*
X1669700Y-1788300D01*
X1669700Y-1783700D01*
X1671700Y-1783700D01*
X1671700Y-1701475D01*
X1676300Y-1701475D01*
X1676300Y-1783700D01*
X1758525Y-1783700D01*
X1766700Y-1775525D01*
X1766700Y-1719496D01*
X1761722Y-1707477D01*
X1752523Y-1698278D01*
X1740504Y-1693300D01*
X1684475Y-1693300D01*
X1676300Y-1701475D01*
X1671700Y-1701475D01*
X1663525Y-1693300D01*
X1655371Y-1693300D01*
X1664233Y-1684438D01*
X1734000Y-1684438D01*
X1747971Y-1681810D01*
X1760802Y-1673553D01*
X1769410Y-1660955D01*
X1772438Y-1646000D01*
X1772438Y-1526000D01*
X1769810Y-1512029D01*
X1761553Y-1499198D01*
X1748955Y-1490590D01*
X1736700Y-1488108D01*
X1736700Y-1464000D01*
X1731927Y-1440006D01*
X1718336Y-1419664D01*
X1705894Y-1407223D01*
X1700927Y-1395201D01*
X1681899Y-1376140D01*
X1669779Y-1371107D01*
X1642720Y-1344049D01*
X1642720Y-1321647D01*
X1643458Y-1318000D01*
X1643458Y-1228000D01*
X1642720Y-1224075D01*
X1642720Y-1177939D01*
X1658000Y-1177939D01*
X1671971Y-1175310D01*
X1684802Y-1167053D01*
X1693410Y-1154455D01*
X1696438Y-1139500D01*
X1696438Y-1109500D01*
X1693810Y-1095529D01*
X1691603Y-1092100D01*
X1693410Y-1089455D01*
X1696438Y-1074500D01*
X1696438Y-1044500D01*
X1693810Y-1030529D01*
X1691603Y-1027100D01*
X1693410Y-1024455D01*
X1696438Y-1009500D01*
X1696438Y-979500D01*
X1693810Y-965529D01*
X1691603Y-962100D01*
X1693410Y-959455D01*
X1696438Y-944500D01*
X1696438Y-914500D01*
X1693810Y-900529D01*
X1691603Y-897100D01*
X1693410Y-894455D01*
X1696438Y-879500D01*
X1696438Y-849500D01*
X1693810Y-835529D01*
X1691603Y-832100D01*
X1693410Y-829455D01*
X1696438Y-814500D01*
X1696438Y-784500D01*
X1693810Y-770529D01*
X1691603Y-767100D01*
X1693410Y-764455D01*
X1696438Y-749500D01*
X1696438Y-719500D01*
X1693810Y-705529D01*
X1691603Y-702100D01*
X1693410Y-699455D01*
X1696438Y-684500D01*
X1696438Y-654500D01*
X1695404Y-649000D01*
X1816800Y-649000D01*
X1816800Y-649001D01*
X1816800Y-1597999D01*
X1816800Y-1598000D01*
X1820621Y-1617211D01*
X1831503Y-1633497D01*
X1862561Y-1664555D01*
X1862561Y-1700500D01*
X1865190Y-1714471D01*
X1873447Y-1727302D01*
X1886045Y-1735910D01*
X1901000Y-1738938D01*
X1981000Y-1738938D01*
X1994971Y-1736310D01*
X2007802Y-1728053D01*
X2016410Y-1715455D01*
X2018300Y-1706122D01*
X2018300Y-1707004D01*
X2023278Y-1719023D01*
X2032477Y-1728222D01*
X2044496Y-1733200D01*
X2080525Y-1733200D01*
X2088700Y-1725025D01*
X2088700Y-1665300D01*
X2093300Y-1665300D01*
X2093300Y-1725025D01*
X2101475Y-1733200D01*
X2137504Y-1733200D01*
X2149523Y-1728222D01*
X2158722Y-1719023D01*
X2163700Y-1707004D01*
X2163700Y-1673475D01*
X2155525Y-1665300D01*
X2093300Y-1665300D01*
X2088700Y-1665300D01*
X2086700Y-1665300D01*
X2086700Y-1660700D01*
X2088700Y-1660700D01*
X2088700Y-1600975D01*
X2093300Y-1600975D01*
X2093300Y-1660700D01*
X2155525Y-1660700D01*
X2163700Y-1652525D01*
X2163700Y-1618995D01*
X2158722Y-1606977D01*
X2158220Y-1606475D01*
X2180300Y-1606475D01*
X2180300Y-1637504D01*
X2185278Y-1649523D01*
X2194477Y-1658722D01*
X2206496Y-1663700D01*
X2267525Y-1663700D01*
X2275700Y-1655525D01*
X2275700Y-1598300D01*
X2280300Y-1598300D01*
X2280300Y-1655525D01*
X2288475Y-1663700D01*
X2349505Y-1663700D01*
X2361523Y-1658722D01*
X2370722Y-1649523D01*
X2375700Y-1637504D01*
X2375700Y-1606475D01*
X2367525Y-1598300D01*
X2280300Y-1598300D01*
X2275700Y-1598300D01*
X2188475Y-1598300D01*
X2180300Y-1606475D01*
X2158220Y-1606475D01*
X2149523Y-1597778D01*
X2137504Y-1592800D01*
X2101475Y-1592800D01*
X2093300Y-1600975D01*
X2088700Y-1600975D01*
X2080525Y-1592800D01*
X2044496Y-1592800D01*
X2032477Y-1597778D01*
X2023278Y-1606977D01*
X2018300Y-1618995D01*
X2018300Y-1619449D01*
X2016810Y-1611529D01*
X2008553Y-1598698D01*
X1995955Y-1590090D01*
X1981000Y-1587061D01*
X1927055Y-1587061D01*
X1919932Y-1579938D01*
X1982000Y-1579938D01*
X1995971Y-1577310D01*
X2008802Y-1569053D01*
X2017410Y-1556455D01*
X2019300Y-1547122D01*
X2019300Y-1548004D01*
X2024278Y-1560023D01*
X2033477Y-1569222D01*
X2045496Y-1574200D01*
X2081525Y-1574200D01*
X2089700Y-1566025D01*
X2089700Y-1506300D01*
X2094300Y-1506300D01*
X2094300Y-1566025D01*
X2102475Y-1574200D01*
X2138504Y-1574200D01*
X2150523Y-1569222D01*
X2159722Y-1560023D01*
X2162011Y-1554496D01*
X2180300Y-1554496D01*
X2180300Y-1585525D01*
X2188475Y-1593700D01*
X2275700Y-1593700D01*
X2275700Y-1536475D01*
X2280300Y-1536475D01*
X2280300Y-1593700D01*
X2367525Y-1593700D01*
X2375700Y-1585525D01*
X2375700Y-1554496D01*
X2370722Y-1542477D01*
X2361523Y-1533278D01*
X2349505Y-1528300D01*
X2288475Y-1528300D01*
X2280300Y-1536475D01*
X2275700Y-1536475D01*
X2267525Y-1528300D01*
X2206496Y-1528300D01*
X2194477Y-1533278D01*
X2185278Y-1542477D01*
X2180300Y-1554496D01*
X2162011Y-1554496D01*
X2164700Y-1548004D01*
X2164700Y-1514475D01*
X2156525Y-1506300D01*
X2094300Y-1506300D01*
X2089700Y-1506300D01*
X2087700Y-1506300D01*
X2087700Y-1501700D01*
X2089700Y-1501700D01*
X2089700Y-1441975D01*
X2094300Y-1441975D01*
X2094300Y-1501700D01*
X2156525Y-1501700D01*
X2164700Y-1493525D01*
X2164700Y-1459995D01*
X2159722Y-1447977D01*
X2150523Y-1438778D01*
X2138504Y-1433800D01*
X2102475Y-1433800D01*
X2094300Y-1441975D01*
X2089700Y-1441975D01*
X2081525Y-1433800D01*
X2065200Y-1433800D01*
X2065200Y-1415200D01*
X2081525Y-1415200D01*
X2089700Y-1407025D01*
X2089700Y-1347300D01*
X2094300Y-1347300D01*
X2094300Y-1407025D01*
X2102475Y-1415200D01*
X2138504Y-1415200D01*
X2150523Y-1410222D01*
X2159722Y-1401023D01*
X2164700Y-1389005D01*
X2164700Y-1355475D01*
X2156525Y-1347300D01*
X2094300Y-1347300D01*
X2089700Y-1347300D01*
X2087700Y-1347300D01*
X2087700Y-1342700D01*
X2089700Y-1342700D01*
X2089700Y-1282975D01*
X2081525Y-1274800D01*
X2065200Y-1274800D01*
X2065200Y-1199194D01*
X2142434Y-1276428D01*
X2138504Y-1274800D01*
X2102475Y-1274800D01*
X2094300Y-1282975D01*
X2094300Y-1342700D01*
X2156525Y-1342700D01*
X2164700Y-1334525D01*
X2164700Y-1300996D01*
X2163072Y-1297066D01*
X2200854Y-1334847D01*
X2199029Y-1335190D01*
X2186198Y-1343447D01*
X2177590Y-1356045D01*
X2174562Y-1371000D01*
X2174562Y-1441000D01*
X2177190Y-1454971D01*
X2185447Y-1467802D01*
X2198045Y-1476410D01*
X2213000Y-1479438D01*
X2343000Y-1479438D01*
X2356971Y-1476810D01*
X2369802Y-1468553D01*
X2378410Y-1455955D01*
X2381439Y-1441000D01*
X2381439Y-1371000D01*
X2378810Y-1357029D01*
X2370553Y-1344198D01*
X2357955Y-1335590D01*
X2343000Y-1332562D01*
X2326522Y-1332562D01*
X2324379Y-1321789D01*
X2324379Y-1321789D01*
X2317900Y-1312093D01*
X2313497Y-1305503D01*
X2313497Y-1305503D01*
X2180194Y-1172200D01*
X2230025Y-1172200D01*
X2238200Y-1164025D01*
X2238200Y-1126800D01*
X2242800Y-1126800D01*
X2242800Y-1164025D01*
X2250975Y-1172200D01*
X2324505Y-1172200D01*
X2336523Y-1167222D01*
X2345722Y-1158023D01*
X2350700Y-1146004D01*
X2350700Y-1134975D01*
X2342525Y-1126800D01*
X2242800Y-1126800D01*
X2238200Y-1126800D01*
X2236200Y-1126800D01*
X2236200Y-1122200D01*
X2238200Y-1122200D01*
X2238200Y-1120200D01*
X2242800Y-1120200D01*
X2242800Y-1122200D01*
X2342525Y-1122200D01*
X2350700Y-1114025D01*
X2350700Y-1109700D01*
X2372900Y-1109700D01*
X2372900Y-1109700D01*
X2392111Y-1105879D01*
X2408397Y-1094997D01*
X2419994Y-1083400D01*
X2542406Y-1083400D01*
X2616800Y-1157794D01*
X2616800Y-1364000D01*
X2616800Y-1364000D01*
X2620621Y-1383211D01*
X2631503Y-1399497D01*
X2742717Y-1510711D01*
X2733510Y-1557000D01*
X2742953Y-1604476D01*
X2769846Y-1644724D01*
X2810094Y-1671616D01*
X2857569Y-1681060D01*
X2862430Y-1681060D01*
X2909906Y-1671616D01*
X2950154Y-1644724D01*
X2977047Y-1604476D01*
X2986490Y-1557000D01*
X2977047Y-1509524D01*
X2950154Y-1469276D01*
X2909906Y-1442383D01*
X2862430Y-1432940D01*
X2857569Y-1432940D01*
X2815335Y-1441341D01*
X2717200Y-1343206D01*
X2717200Y-1194554D01*
X2757059Y-1234413D01*
X2742953Y-1255524D01*
X2733510Y-1303000D01*
X2742953Y-1350476D01*
X2769846Y-1390724D01*
X2810094Y-1417616D01*
X2857569Y-1427060D01*
X2862430Y-1427060D01*
X2909906Y-1417616D01*
X2950154Y-1390724D01*
X2977047Y-1350476D01*
X2986490Y-1303000D01*
X2977047Y-1255524D01*
X2950154Y-1215276D01*
X2909906Y-1188384D01*
X2862430Y-1178940D01*
X2857569Y-1178940D01*
X2845895Y-1181262D01*
X2832758Y-1168125D01*
X2857569Y-1173060D01*
X2862430Y-1173060D01*
X2909906Y-1163617D01*
X2950154Y-1136724D01*
X2977047Y-1096476D01*
X2986490Y-1049000D01*
X2977047Y-1001524D01*
X2950154Y-961276D01*
X2909906Y-934383D01*
X2862430Y-924940D01*
X2857569Y-924940D01*
X2810094Y-934383D01*
X2769846Y-961276D01*
X2742953Y-1001524D01*
X2733510Y-1049000D01*
X2738445Y-1073812D01*
X2568817Y-904183D01*
X2568816Y-904183D01*
X2567137Y-902503D01*
X2567136Y-902503D01*
X2558637Y-894003D01*
X2542351Y-883121D01*
X2523140Y-879300D01*
X2523139Y-879300D01*
X2356439Y-879300D01*
X2356439Y-849700D01*
X2747780Y-849700D01*
X2769846Y-882724D01*
X2810094Y-909616D01*
X2857569Y-919060D01*
X2862430Y-919060D01*
X2909906Y-909616D01*
X2950154Y-882724D01*
X2977047Y-842476D01*
X2986490Y-795000D01*
X2977047Y-747524D01*
X2950154Y-707276D01*
X2909906Y-680384D01*
X2862430Y-670940D01*
X2857569Y-670940D01*
X2810094Y-680384D01*
X2769846Y-707276D01*
X2742953Y-747524D01*
X2742600Y-749300D01*
X2356439Y-749300D01*
X2356439Y-719700D01*
X2731500Y-719700D01*
X2731500Y-719700D01*
X2750711Y-715879D01*
X2766997Y-704997D01*
X2815335Y-656659D01*
X2857569Y-665060D01*
X2862430Y-665060D01*
X2909906Y-655617D01*
X2950154Y-628724D01*
X2977047Y-588476D01*
X2986490Y-541000D01*
X2977047Y-493524D01*
X2950154Y-453276D01*
X2909906Y-426383D01*
X2862430Y-416940D01*
X2857569Y-416940D01*
X2810094Y-426383D01*
X2769846Y-453276D01*
X2742953Y-493524D01*
X2733510Y-541000D01*
X2742717Y-587289D01*
X2710706Y-619300D01*
X2356439Y-619300D01*
X2356439Y-589500D01*
X2353810Y-575529D01*
X2351603Y-572100D01*
X2353410Y-569455D01*
X2356439Y-554500D01*
X2356439Y-524500D01*
X2353810Y-510529D01*
X2351603Y-507100D01*
X2353410Y-504455D01*
X2356439Y-489500D01*
X2356439Y-459500D01*
X2353810Y-445529D01*
X2351603Y-442100D01*
X2353410Y-439455D01*
X2356439Y-424500D01*
X2356439Y-394500D01*
X2353810Y-380529D01*
X2351603Y-377100D01*
X2353410Y-374455D01*
X2356439Y-359500D01*
X2356439Y-329500D01*
X2353810Y-315529D01*
X2351603Y-312100D01*
X2353410Y-309455D01*
X2356439Y-294500D01*
X2356439Y-264500D01*
X2353810Y-250529D01*
X2345553Y-237698D01*
X2332955Y-229090D01*
X2318000Y-226061D01*
X2307695Y-226061D01*
X2307712Y-206593D01*
X2297427Y-181701D01*
X2278399Y-162640D01*
X2253525Y-152312D01*
X2226593Y-152288D01*
X2201701Y-162573D01*
X2182640Y-181601D01*
X2172312Y-206475D01*
X2172295Y-226061D01*
X2163000Y-226061D01*
X2149029Y-228690D01*
X2136198Y-236947D01*
X2127590Y-249545D01*
X2124562Y-264500D01*
X2124562Y-294500D01*
X2127190Y-308471D01*
X2129397Y-311900D01*
X2127590Y-314545D01*
X2124562Y-329500D01*
X2124562Y-359300D01*
X2106500Y-359300D01*
X2087289Y-363121D01*
X2071003Y-374003D01*
X2071003Y-374003D01*
X1831503Y-613503D01*
X1820621Y-629789D01*
X1816800Y-649000D01*
X1695404Y-649000D01*
X1693810Y-640529D01*
X1691603Y-637100D01*
X1693410Y-634455D01*
X1696438Y-619500D01*
X1696438Y-597175D01*
X1699764Y-596549D01*
X1738122Y-571867D01*
X1763855Y-534206D01*
X1772908Y-489500D01*
X1772908Y-459500D01*
X1765049Y-417736D01*
X1740367Y-379378D01*
X1702706Y-353645D01*
X1696438Y-352376D01*
X1696438Y-329500D01*
X1693810Y-315529D01*
X1691603Y-312100D01*
X1693410Y-309455D01*
X1696438Y-294500D01*
X1696438Y-264500D01*
X1693810Y-250529D01*
X1685553Y-237698D01*
X1672955Y-229090D01*
X1658000Y-226061D01*
X1630700Y-226061D01*
X1630700Y-215608D01*
X1634091Y-214970D01*
X1646922Y-206713D01*
X1655530Y-194115D01*
X1658558Y-179160D01*
X1658558Y-127700D01*
X3002300Y-127700D01*
X3002300Y-485522D01*
X3002300Y-485522D01*
G37*
X3002300Y-485522D02*
X2996953Y-493524D01*
X2987509Y-541000D01*
X2996953Y-588476D01*
X3002300Y-596478D01*
X3002300Y-739522D01*
X2996953Y-747524D01*
X2987509Y-795000D01*
X2996953Y-842476D01*
X3002300Y-850478D01*
X3002300Y-993522D01*
X2996953Y-1001524D01*
X2987509Y-1049000D01*
X2996953Y-1096476D01*
X3002300Y-1104478D01*
X3002300Y-1247522D01*
X2996953Y-1255524D01*
X2987509Y-1303000D01*
X2996953Y-1350476D01*
X3002300Y-1358478D01*
X3002300Y-1442146D01*
X3000838Y-1443087D01*
X2992230Y-1455685D01*
X2989201Y-1470640D01*
X2989201Y-1643360D01*
X2991830Y-1657331D01*
X3000087Y-1670162D01*
X3002300Y-1671674D01*
X3002300Y-1977255D01*
X1805815Y-1973042D01*
X1823336Y-1961336D01*
X1858816Y-1925855D01*
X1861190Y-1938471D01*
X1869447Y-1951302D01*
X1882045Y-1959910D01*
X1897000Y-1962938D01*
X1997000Y-1962938D01*
X2010971Y-1960310D01*
X2023802Y-1952053D01*
X2032410Y-1939455D01*
X2035438Y-1924500D01*
X2035438Y-1872475D01*
X2064300Y-1872475D01*
X2064300Y-1931004D01*
X2069278Y-1943023D01*
X2078477Y-1952222D01*
X2090496Y-1957200D01*
X2136525Y-1957200D01*
X2144700Y-1949025D01*
X2144700Y-1864300D01*
X2149300Y-1864300D01*
X2149300Y-1949025D01*
X2157475Y-1957200D01*
X2203504Y-1957200D01*
X2215523Y-1952222D01*
X2224722Y-1943023D01*
X2229700Y-1931004D01*
X2229700Y-1872475D01*
X2221525Y-1864300D01*
X2149300Y-1864300D01*
X2144700Y-1864300D01*
X2072475Y-1864300D01*
X2064300Y-1872475D01*
X2035438Y-1872475D01*
X2035438Y-1799500D01*
X2034215Y-1792995D01*
X2064300Y-1792995D01*
X2064300Y-1851525D01*
X2072475Y-1859700D01*
X2144700Y-1859700D01*
X2144700Y-1774975D01*
X2149300Y-1774975D01*
X2149300Y-1859700D01*
X2221525Y-1859700D01*
X2229700Y-1851525D01*
X2229700Y-1792995D01*
X2224722Y-1780977D01*
X2215523Y-1771778D01*
X2203504Y-1766800D01*
X2157475Y-1766800D01*
X2149300Y-1774975D01*
X2144700Y-1774975D01*
X2136525Y-1766800D01*
X2090496Y-1766800D01*
X2078477Y-1771778D01*
X2069278Y-1780977D01*
X2064300Y-1792995D01*
X2034215Y-1792995D01*
X2032810Y-1785529D01*
X2024553Y-1772698D01*
X2011955Y-1764090D01*
X1997000Y-1761061D01*
X1897000Y-1761061D01*
X1883029Y-1763690D01*
X1870198Y-1771947D01*
X1861590Y-1784545D01*
X1858602Y-1799300D01*
X1834000Y-1799300D01*
X1810006Y-1804073D01*
X1789664Y-1817664D01*
X1766700Y-1840629D01*
X1766700Y-1796475D01*
X1758525Y-1788300D01*
X1676300Y-1788300D01*
X1676300Y-1790300D01*
X1671700Y-1790300D01*
X1671700Y-1788300D01*
X1669700Y-1788300D01*
X1669700Y-1783700D01*
X1671700Y-1783700D01*
X1671700Y-1701475D01*
X1676300Y-1701475D01*
X1676300Y-1783700D01*
X1758525Y-1783700D01*
X1766700Y-1775525D01*
X1766700Y-1719496D01*
X1761722Y-1707477D01*
X1752523Y-1698278D01*
X1740504Y-1693300D01*
X1684475Y-1693300D01*
X1676300Y-1701475D01*
X1671700Y-1701475D01*
X1663525Y-1693300D01*
X1655371Y-1693300D01*
X1664233Y-1684438D01*
X1734000Y-1684438D01*
X1747971Y-1681810D01*
X1760802Y-1673553D01*
X1769410Y-1660955D01*
X1772438Y-1646000D01*
X1772438Y-1526000D01*
X1769810Y-1512029D01*
X1761553Y-1499198D01*
X1748955Y-1490590D01*
X1736700Y-1488108D01*
X1736700Y-1464000D01*
X1731927Y-1440006D01*
X1718336Y-1419664D01*
X1705894Y-1407223D01*
X1700927Y-1395201D01*
X1681899Y-1376140D01*
X1669779Y-1371107D01*
X1642720Y-1344049D01*
X1642720Y-1321647D01*
X1643458Y-1318000D01*
X1643458Y-1228000D01*
X1642720Y-1224075D01*
X1642720Y-1177939D01*
X1658000Y-1177939D01*
X1671971Y-1175310D01*
X1684802Y-1167053D01*
X1693410Y-1154455D01*
X1696438Y-1139500D01*
X1696438Y-1109500D01*
X1693810Y-1095529D01*
X1691603Y-1092100D01*
X1693410Y-1089455D01*
X1696438Y-1074500D01*
X1696438Y-1044500D01*
X1693810Y-1030529D01*
X1691603Y-1027100D01*
X1693410Y-1024455D01*
X1696438Y-1009500D01*
X1696438Y-979500D01*
X1693810Y-965529D01*
X1691603Y-962100D01*
X1693410Y-959455D01*
X1696438Y-944500D01*
X1696438Y-914500D01*
X1693810Y-900529D01*
X1691603Y-897100D01*
X1693410Y-894455D01*
X1696438Y-879500D01*
X1696438Y-849500D01*
X1693810Y-835529D01*
X1691603Y-832100D01*
X1693410Y-829455D01*
X1696438Y-814500D01*
X1696438Y-784500D01*
X1693810Y-770529D01*
X1691603Y-767100D01*
X1693410Y-764455D01*
X1696438Y-749500D01*
X1696438Y-719500D01*
X1693810Y-705529D01*
X1691603Y-702100D01*
X1693410Y-699455D01*
X1696438Y-684500D01*
X1696438Y-654500D01*
X1695404Y-649000D01*
X1816800Y-649000D01*
X1816800Y-649001D01*
X1816800Y-1597999D01*
X1816800Y-1598000D01*
X1820621Y-1617211D01*
X1831503Y-1633497D01*
X1862561Y-1664555D01*
X1862561Y-1700500D01*
X1865190Y-1714471D01*
X1873447Y-1727302D01*
X1886045Y-1735910D01*
X1901000Y-1738938D01*
X1981000Y-1738938D01*
X1994971Y-1736310D01*
X2007802Y-1728053D01*
X2016410Y-1715455D01*
X2018300Y-1706122D01*
X2018300Y-1707004D01*
X2023278Y-1719023D01*
X2032477Y-1728222D01*
X2044496Y-1733200D01*
X2080525Y-1733200D01*
X2088700Y-1725025D01*
X2088700Y-1665300D01*
X2093300Y-1665300D01*
X2093300Y-1725025D01*
X2101475Y-1733200D01*
X2137504Y-1733200D01*
X2149523Y-1728222D01*
X2158722Y-1719023D01*
X2163700Y-1707004D01*
X2163700Y-1673475D01*
X2155525Y-1665300D01*
X2093300Y-1665300D01*
X2088700Y-1665300D01*
X2086700Y-1665300D01*
X2086700Y-1660700D01*
X2088700Y-1660700D01*
X2088700Y-1600975D01*
X2093300Y-1600975D01*
X2093300Y-1660700D01*
X2155525Y-1660700D01*
X2163700Y-1652525D01*
X2163700Y-1618995D01*
X2158722Y-1606977D01*
X2158220Y-1606475D01*
X2180300Y-1606475D01*
X2180300Y-1637504D01*
X2185278Y-1649523D01*
X2194477Y-1658722D01*
X2206496Y-1663700D01*
X2267525Y-1663700D01*
X2275700Y-1655525D01*
X2275700Y-1598300D01*
X2280300Y-1598300D01*
X2280300Y-1655525D01*
X2288475Y-1663700D01*
X2349505Y-1663700D01*
X2361523Y-1658722D01*
X2370722Y-1649523D01*
X2375700Y-1637504D01*
X2375700Y-1606475D01*
X2367525Y-1598300D01*
X2280300Y-1598300D01*
X2275700Y-1598300D01*
X2188475Y-1598300D01*
X2180300Y-1606475D01*
X2158220Y-1606475D01*
X2149523Y-1597778D01*
X2137504Y-1592800D01*
X2101475Y-1592800D01*
X2093300Y-1600975D01*
X2088700Y-1600975D01*
X2080525Y-1592800D01*
X2044496Y-1592800D01*
X2032477Y-1597778D01*
X2023278Y-1606977D01*
X2018300Y-1618995D01*
X2018300Y-1619449D01*
X2016810Y-1611529D01*
X2008553Y-1598698D01*
X1995955Y-1590090D01*
X1981000Y-1587061D01*
X1927055Y-1587061D01*
X1919932Y-1579938D01*
X1982000Y-1579938D01*
X1995971Y-1577310D01*
X2008802Y-1569053D01*
X2017410Y-1556455D01*
X2019300Y-1547122D01*
X2019300Y-1548004D01*
X2024278Y-1560023D01*
X2033477Y-1569222D01*
X2045496Y-1574200D01*
X2081525Y-1574200D01*
X2089700Y-1566025D01*
X2089700Y-1506300D01*
X2094300Y-1506300D01*
X2094300Y-1566025D01*
X2102475Y-1574200D01*
X2138504Y-1574200D01*
X2150523Y-1569222D01*
X2159722Y-1560023D01*
X2162011Y-1554496D01*
X2180300Y-1554496D01*
X2180300Y-1585525D01*
X2188475Y-1593700D01*
X2275700Y-1593700D01*
X2275700Y-1536475D01*
X2280300Y-1536475D01*
X2280300Y-1593700D01*
X2367525Y-1593700D01*
X2375700Y-1585525D01*
X2375700Y-1554496D01*
X2370722Y-1542477D01*
X2361523Y-1533278D01*
X2349505Y-1528300D01*
X2288475Y-1528300D01*
X2280300Y-1536475D01*
X2275700Y-1536475D01*
X2267525Y-1528300D01*
X2206496Y-1528300D01*
X2194477Y-1533278D01*
X2185278Y-1542477D01*
X2180300Y-1554496D01*
X2162011Y-1554496D01*
X2164700Y-1548004D01*
X2164700Y-1514475D01*
X2156525Y-1506300D01*
X2094300Y-1506300D01*
X2089700Y-1506300D01*
X2087700Y-1506300D01*
X2087700Y-1501700D01*
X2089700Y-1501700D01*
X2089700Y-1441975D01*
X2094300Y-1441975D01*
X2094300Y-1501700D01*
X2156525Y-1501700D01*
X2164700Y-1493525D01*
X2164700Y-1459995D01*
X2159722Y-1447977D01*
X2150523Y-1438778D01*
X2138504Y-1433800D01*
X2102475Y-1433800D01*
X2094300Y-1441975D01*
X2089700Y-1441975D01*
X2081525Y-1433800D01*
X2065200Y-1433800D01*
X2065200Y-1415200D01*
X2081525Y-1415200D01*
X2089700Y-1407025D01*
X2089700Y-1347300D01*
X2094300Y-1347300D01*
X2094300Y-1407025D01*
X2102475Y-1415200D01*
X2138504Y-1415200D01*
X2150523Y-1410222D01*
X2159722Y-1401023D01*
X2164700Y-1389005D01*
X2164700Y-1355475D01*
X2156525Y-1347300D01*
X2094300Y-1347300D01*
X2089700Y-1347300D01*
X2087700Y-1347300D01*
X2087700Y-1342700D01*
X2089700Y-1342700D01*
X2089700Y-1282975D01*
X2081525Y-1274800D01*
X2065200Y-1274800D01*
X2065200Y-1199194D01*
X2142434Y-1276428D01*
X2138504Y-1274800D01*
X2102475Y-1274800D01*
X2094300Y-1282975D01*
X2094300Y-1342700D01*
X2156525Y-1342700D01*
X2164700Y-1334525D01*
X2164700Y-1300996D01*
X2163072Y-1297066D01*
X2200854Y-1334847D01*
X2199029Y-1335190D01*
X2186198Y-1343447D01*
X2177590Y-1356045D01*
X2174562Y-1371000D01*
X2174562Y-1441000D01*
X2177190Y-1454971D01*
X2185447Y-1467802D01*
X2198045Y-1476410D01*
X2213000Y-1479438D01*
X2343000Y-1479438D01*
X2356971Y-1476810D01*
X2369802Y-1468553D01*
X2378410Y-1455955D01*
X2381439Y-1441000D01*
X2381439Y-1371000D01*
X2378810Y-1357029D01*
X2370553Y-1344198D01*
X2357955Y-1335590D01*
X2343000Y-1332562D01*
X2326522Y-1332562D01*
X2324379Y-1321789D01*
X2324379Y-1321789D01*
X2317900Y-1312093D01*
X2313497Y-1305503D01*
X2313497Y-1305503D01*
X2180194Y-1172200D01*
X2230025Y-1172200D01*
X2238200Y-1164025D01*
X2238200Y-1126800D01*
X2242800Y-1126800D01*
X2242800Y-1164025D01*
X2250975Y-1172200D01*
X2324505Y-1172200D01*
X2336523Y-1167222D01*
X2345722Y-1158023D01*
X2350700Y-1146004D01*
X2350700Y-1134975D01*
X2342525Y-1126800D01*
X2242800Y-1126800D01*
X2238200Y-1126800D01*
X2236200Y-1126800D01*
X2236200Y-1122200D01*
X2238200Y-1122200D01*
X2238200Y-1120200D01*
X2242800Y-1120200D01*
X2242800Y-1122200D01*
X2342525Y-1122200D01*
X2350700Y-1114025D01*
X2350700Y-1109700D01*
X2372900Y-1109700D01*
X2372900Y-1109700D01*
X2392111Y-1105879D01*
X2408397Y-1094997D01*
X2419994Y-1083400D01*
X2542406Y-1083400D01*
X2616800Y-1157794D01*
X2616800Y-1364000D01*
X2616800Y-1364000D01*
X2620621Y-1383211D01*
X2631503Y-1399497D01*
X2742717Y-1510711D01*
X2733510Y-1557000D01*
X2742953Y-1604476D01*
X2769846Y-1644724D01*
X2810094Y-1671616D01*
X2857569Y-1681060D01*
X2862430Y-1681060D01*
X2909906Y-1671616D01*
X2950154Y-1644724D01*
X2977047Y-1604476D01*
X2986490Y-1557000D01*
X2977047Y-1509524D01*
X2950154Y-1469276D01*
X2909906Y-1442383D01*
X2862430Y-1432940D01*
X2857569Y-1432940D01*
X2815335Y-1441341D01*
X2717200Y-1343206D01*
X2717200Y-1194554D01*
X2757059Y-1234413D01*
X2742953Y-1255524D01*
X2733510Y-1303000D01*
X2742953Y-1350476D01*
X2769846Y-1390724D01*
X2810094Y-1417616D01*
X2857569Y-1427060D01*
X2862430Y-1427060D01*
X2909906Y-1417616D01*
X2950154Y-1390724D01*
X2977047Y-1350476D01*
X2986490Y-1303000D01*
X2977047Y-1255524D01*
X2950154Y-1215276D01*
X2909906Y-1188384D01*
X2862430Y-1178940D01*
X2857569Y-1178940D01*
X2845895Y-1181262D01*
X2832758Y-1168125D01*
X2857569Y-1173060D01*
X2862430Y-1173060D01*
X2909906Y-1163617D01*
X2950154Y-1136724D01*
X2977047Y-1096476D01*
X2986490Y-1049000D01*
X2977047Y-1001524D01*
X2950154Y-961276D01*
X2909906Y-934383D01*
X2862430Y-924940D01*
X2857569Y-924940D01*
X2810094Y-934383D01*
X2769846Y-961276D01*
X2742953Y-1001524D01*
X2733510Y-1049000D01*
X2738445Y-1073812D01*
X2568817Y-904183D01*
X2568816Y-904183D01*
X2567137Y-902503D01*
X2567136Y-902503D01*
X2558637Y-894003D01*
X2542351Y-883121D01*
X2523140Y-879300D01*
X2523139Y-879300D01*
X2356439Y-879300D01*
X2356439Y-849700D01*
X2747780Y-849700D01*
X2769846Y-882724D01*
X2810094Y-909616D01*
X2857569Y-919060D01*
X2862430Y-919060D01*
X2909906Y-909616D01*
X2950154Y-882724D01*
X2977047Y-842476D01*
X2986490Y-795000D01*
X2977047Y-747524D01*
X2950154Y-707276D01*
X2909906Y-680384D01*
X2862430Y-670940D01*
X2857569Y-670940D01*
X2810094Y-680384D01*
X2769846Y-707276D01*
X2742953Y-747524D01*
X2742600Y-749300D01*
X2356439Y-749300D01*
X2356439Y-719700D01*
X2731500Y-719700D01*
X2731500Y-719700D01*
X2750711Y-715879D01*
X2766997Y-704997D01*
X2815335Y-656659D01*
X2857569Y-665060D01*
X2862430Y-665060D01*
X2909906Y-655617D01*
X2950154Y-628724D01*
X2977047Y-588476D01*
X2986490Y-541000D01*
X2977047Y-493524D01*
X2950154Y-453276D01*
X2909906Y-426383D01*
X2862430Y-416940D01*
X2857569Y-416940D01*
X2810094Y-426383D01*
X2769846Y-453276D01*
X2742953Y-493524D01*
X2733510Y-541000D01*
X2742717Y-587289D01*
X2710706Y-619300D01*
X2356439Y-619300D01*
X2356439Y-589500D01*
X2353810Y-575529D01*
X2351603Y-572100D01*
X2353410Y-569455D01*
X2356439Y-554500D01*
X2356439Y-524500D01*
X2353810Y-510529D01*
X2351603Y-507100D01*
X2353410Y-504455D01*
X2356439Y-489500D01*
X2356439Y-459500D01*
X2353810Y-445529D01*
X2351603Y-442100D01*
X2353410Y-439455D01*
X2356439Y-424500D01*
X2356439Y-394500D01*
X2353810Y-380529D01*
X2351603Y-377100D01*
X2353410Y-374455D01*
X2356439Y-359500D01*
X2356439Y-329500D01*
X2353810Y-315529D01*
X2351603Y-312100D01*
X2353410Y-309455D01*
X2356439Y-294500D01*
X2356439Y-264500D01*
X2353810Y-250529D01*
X2345553Y-237698D01*
X2332955Y-229090D01*
X2318000Y-226061D01*
X2307695Y-226061D01*
X2307712Y-206593D01*
X2297427Y-181701D01*
X2278399Y-162640D01*
X2253525Y-152312D01*
X2226593Y-152288D01*
X2201701Y-162573D01*
X2182640Y-181601D01*
X2172312Y-206475D01*
X2172295Y-226061D01*
X2163000Y-226061D01*
X2149029Y-228690D01*
X2136198Y-236947D01*
X2127590Y-249545D01*
X2124562Y-264500D01*
X2124562Y-294500D01*
X2127190Y-308471D01*
X2129397Y-311900D01*
X2127590Y-314545D01*
X2124562Y-329500D01*
X2124562Y-359300D01*
X2106500Y-359300D01*
X2087289Y-363121D01*
X2071003Y-374003D01*
X2071003Y-374003D01*
X1831503Y-613503D01*
X1820621Y-629789D01*
X1816800Y-649000D01*
X1695404Y-649000D01*
X1693810Y-640529D01*
X1691603Y-637100D01*
X1693410Y-634455D01*
X1696438Y-619500D01*
X1696438Y-597175D01*
X1699764Y-596549D01*
X1738122Y-571867D01*
X1763855Y-534206D01*
X1772908Y-489500D01*
X1772908Y-459500D01*
X1765049Y-417736D01*
X1740367Y-379378D01*
X1702706Y-353645D01*
X1696438Y-352376D01*
X1696438Y-329500D01*
X1693810Y-315529D01*
X1691603Y-312100D01*
X1693410Y-309455D01*
X1696438Y-294500D01*
X1696438Y-264500D01*
X1693810Y-250529D01*
X1685553Y-237698D01*
X1672955Y-229090D01*
X1658000Y-226061D01*
X1630700Y-226061D01*
X1630700Y-215608D01*
X1634091Y-214970D01*
X1646922Y-206713D01*
X1655530Y-194115D01*
X1658558Y-179160D01*
X1658558Y-127700D01*
X3002300Y-127700D01*
X3002300Y-485522D01*
M02*
