G04 #@! TF.FileFunction,Paste,Top*
%FSLAX45Y45*%
G04 Gerber Fmt 4.5, Leading zero omitted, Abs format (unit mm)*
G04 Created by KiCad (PCBNEW 4.0.1-stable) date 12-Feb-16 12:46:57 PM*
%MOMM*%
G01*
G04 APERTURE LIST*
%ADD10C,0.100000*%
%ADD11R,1.550000X0.300000*%
%ADD12R,0.800000X0.750000*%
%ADD13R,1.300000X0.700000*%
%ADD14R,0.750000X0.800000*%
%ADD15R,3.599180X1.600200*%
%ADD16R,0.500000X0.900000*%
%ADD17R,1.000000X1.250000*%
%ADD18R,1.200000X1.200000*%
%ADD19R,1.500000X1.600000*%
%ADD20R,1.700000X0.900000*%
G04 APERTURE END LIST*
D10*
D11*
X2240500Y-279500D03*
X1580500Y-279500D03*
X1580500Y-344500D03*
X2240500Y-409500D03*
X1580500Y-409500D03*
X2240500Y-474500D03*
X1580500Y-474500D03*
X2240500Y-539500D03*
X1580500Y-539500D03*
X2240500Y-604500D03*
X1580500Y-604500D03*
X2240500Y-669500D03*
X1580500Y-669500D03*
X2240500Y-734500D03*
X1580500Y-734500D03*
X2240500Y-799500D03*
X1580500Y-799500D03*
X2240500Y-864500D03*
X1580500Y-864500D03*
X2240500Y-929500D03*
X1580500Y-929500D03*
X2240500Y-994500D03*
X1580500Y-994500D03*
X2240500Y-1059500D03*
X1580500Y-1059500D03*
X2240500Y-1124500D03*
X1580500Y-1124500D03*
D12*
X1941000Y-1663000D03*
X2091000Y-1663000D03*
D13*
X2278000Y-1596000D03*
X2278000Y-1406000D03*
D12*
X1942000Y-1504000D03*
X2092000Y-1504000D03*
X1942000Y-1345000D03*
X2092000Y-1345000D03*
X1430120Y-141660D03*
X1580120Y-141660D03*
D14*
X641520Y-135240D03*
X641520Y-285240D03*
X821860Y-135240D03*
X821860Y-285240D03*
D13*
X1228260Y-323020D03*
X1228260Y-133020D03*
D14*
X999660Y-285240D03*
X999660Y-135240D03*
D15*
X352976Y-1660580D03*
X903140Y-1660580D03*
D16*
X1430020Y-1273000D03*
X1580020Y-1273000D03*
D17*
X2147000Y-1862000D03*
X1947000Y-1862000D03*
D18*
X1674000Y-1786000D03*
X1674000Y-1586000D03*
D19*
X1349000Y-1686000D03*
D20*
X695020Y-658000D03*
X695020Y-948000D03*
X1120020Y-858000D03*
X1120020Y-1148000D03*
M02*
