M48
;DRILL file {KiCad 4.0.1-stable} date 12-Feb-16 11:08:18 AM
;FORMAT={-:-/ absolute / metric / decimal}
FMAT,2
METRIC,TZ
T1C0.400
T2C1.016
%
G90
G05
M71
T1
X8.219Y-3.982
X8.75Y-9.101
X10.45Y-13.282
X17.336Y-14.266
X22.4Y-2.2
X23.8Y-19.35
X31.08Y-2.83
T2
X3.189Y-3.423
X3.189Y-5.963
X3.189Y-8.503
X3.189Y-11.043
X28.6Y-5.41
X28.6Y-7.95
X28.6Y-10.49
X28.6Y-13.03
X28.6Y-15.57
X31.14Y-5.41
X31.14Y-7.95
X31.14Y-10.49
X31.14Y-13.03
X31.14Y-15.57
T0
M30
